<svg xmlns="http://www.w3.org/2000/svg" viewBox="8.35 7.85 558.3 503.3">
  <title>Reese Roofing</title>
  <path d="M 497.75 511.15 L 76.75 511.15 L 76.15 260.05 L 74.75 258.85 L 72.35 260.05 L 37.75 290.25 L 11.25 261.05 L 8.35 255.05 L 286.75 7.85 L 402.75 109.45 L 404.25 108.05 L 404.25 66.05 L 405.75 63.85 L 474.75 63.85 L 476.25 67.05 L 475.55 174.05 L 566.65 256.05 L 536.75 290.25 L 502.15 260.05 L 498.45 259.05 L 497.75 511.15 Z M 450.85 464.05 L 450.95 215.05 L 289.75 70.55 L 286.75 69.75 L 123.55 215.05 L 123.65 464.05 L 450.85 464.05 Z" fill="#1f4e7a" fill-rule="evenodd"></path>
  <path d="M 193.198 425.085 L 193.198 199.547 L 290.376 199.547 C 307.127 199.547 321.785 202.6 334.348 208.706 C 346.912 214.81 356.701 223.589 363.714 235.044 C 370.727 246.497 374.234 260.195 374.234 276.139 C 374.234 292.285 370.652 305.908 363.487 317.008 C 356.322 328.108 346.281 336.484 333.364 342.135 C 320.447 347.786 305.412 350.612 288.257 350.612 L 230.132 350.612 L 230.132 303.083 L 275.845 303.083 C 283.11 303.083 289.316 302.174 294.463 300.357 C 299.61 298.542 303.545 295.667 306.27 291.73 C 308.995 287.794 310.357 282.598 310.357 276.139 C 310.357 269.682 308.995 264.434 306.27 260.397 C 303.545 256.361 299.61 253.384 294.463 251.466 C 289.316 249.549 283.11 248.59 275.845 248.59 L 254.351 248.59 L 254.351 425.085 L 193.198 425.085 Z M 315.2 425.085 L 260.103 321.549 L 325.191 321.549 L 381.802 425.085 L 315.2 425.085 Z" style="fill: rgb(31, 78, 122); text-wrap-mode: nowrap;"></path>
</svg>