<?xml version="1.0" encoding="UTF-8" standalone="no"?>
<svg
   version="1.1"
   viewBox="0 0 1746.0654 1330.4968"
   id="svg363"
   sodipodi:docname="Logo Upscaled x2 Edited.svg"
   inkscape:version="1.4.3 (0d15f75, 2025-12-25)"
   width="1746.0654"
   height="1330.4968"
   xmlns:inkscape="http://www.inkscape.org/namespaces/inkscape"
   xmlns:sodipodi="http://sodipodi.sourceforge.net/DTD/sodipodi-0.dtd"
   xmlns="http://www.w3.org/2000/svg"
   xmlns:svg="http://www.w3.org/2000/svg">
  <defs
     id="defs363" />
  <sodipodi:namedview
     id="namedview363"
     pagecolor="#ffffff"
     bordercolor="#000000"
     borderopacity="0.25"
     inkscape:showpageshadow="2"
     inkscape:pageopacity="0.0"
     inkscape:pagecheckerboard="0"
     inkscape:deskcolor="#d1d1d1"
     inkscape:zoom="0.35355339"
     inkscape:cx="571.34228"
     inkscape:cy="844.28549"
     inkscape:window-width="1920"
     inkscape:window-height="1009"
     inkscape:window-x="5752"
     inkscape:window-y="161"
     inkscape:window-maximized="1"
     inkscape:current-layer="svg363" />
  <path
     id="path315-8"
     d="m 1155.9622,764.57439 a 0.64,0.65 22.8 0 0 -0.5157,0.25586 l -5.8906,7.59961 c 1.58,0.71333 3.4545,0.99008 5.6211,0.83008 11.27,1.47 22.2585,2.93133 33.6485,5.11133 9.46,1.80666 18.9239,3.5989 28.3906,5.3789 l 58.7597,11.91992 43.5215,9.50977 36.8887,9.64062 c 32.0267,9.22 56.6697,16.91035 73.9297,23.07031 21.7467,7.76 40.8866,15.1325 57.4199,22.1191 28.4933,12.04 56.4984,26.8641 84.0117,44.4707 1.6067,1.0267 3.8598,2.679 6.7598,4.959 2.8667,2.3134 5.6434,4.6549 8.3301,7.0215 6.08,5.37 11.6887,9.7784 17.2187,15.5684 a 2.73,3.02 87.1 0 0 0.541,0.4414 l 8.1192,5.1797 a 0.34,0.34 0 0 1 0.1094,0.4707 l -0.1387,0.2187 a 0.28,0.28 0 0 1 -0.3496,0.1 l -38.5801,-16.83 c -22.9867,-10.5467 -39.9208,-18.163 -50.8008,-22.8497 -13.2067,-5.6866 -30.9175,-12.8955 -53.1308,-21.6289 -35.58,-13.98 -72.2596,-25.3614 -109.0196,-35.7714 -11.3866,5.5733 -23.3188,9.4179 -35.7988,11.5312 a 2.61,2.39 44.7 0 1 -0.9902,-0.041 c -33.94,-8.16 -68.223,-14.6693 -102.8496,-19.52931 -23.7267,-3.80666 -47.6166,-6.79737 -71.67,-8.9707 -14.1333,-1.54667 -26.7372,-2.65984 -37.8105,-3.33984 -3.12,-0.19334 -5.9173,-0.65534 -8.3906,-1.38867 l -18.0606,16.05859 a 0.22,0.22 0 0 0 0.1211,0.38086 c 16.1933,1.51327 36.8806,3.53387 62.0606,6.06057 24,2.41 46.9483,5.7687 73.3183,9.2187 15.76,2.06 26.4217,4.1107 45.0117,6.8906 9.7734,1.4667 20.9966,3.3566 33.67,5.67 51.84,9.48 103.2927,20.5788 154.3593,33.2988 8.14,2.03 15.6893,4.4609 23.7793,6.4609 2.86,0.7067 8.7705,2.3734 17.7305,5 19.9733,5.8467 34.8303,10.3436 44.5703,13.4903 15.92,5.14 39.8991,12.9206 59.1191,20.1406 19.68,7.4 29.6104,10.949 42.9004,16.959 a 0.36,0.36 0 0 0 0.4297,-0.5606 c -8.41,-10.17 -18.6988,-22.0684 -28.5488,-30.8984 -13.2,-11.84 -26.3132,-22.0005 -39.3398,-30.4805 -16.7467,-10.9 -34.975,-21.1829 -54.6817,-30.8496 -29.3933,-14.4066 -58.1352,-26.3974 -86.2285,-35.97068 -3.6333,-1.24 -12.5407,-4.2462 -26.7207,-9.01954 -12.4333,-4.18666 -27.8624,-8.84403 -46.2891,-13.9707 -3.9466,-1.09333 -6.6842,-1.78984 -8.2109,-2.08984 -18.4533,-4.68667 -36.944,-9.23706 -55.4707,-13.65039 -9.63,-2.29 -18.9495,-3.94922 -28.0195,-6.19922 -5.44,-1.34667 -12.4431,-2.87651 -21.0098,-4.58985 -14.76,-2.96 -30.8001,-6.59984 -47.8301,-9.08984 -2.0867,-0.30667 -7.5537,-1.27992 -16.4004,-2.91992 -8.8733,-1.64 -18.0431,-3.10086 -27.5097,-4.38086 a 0.64,0.65 22.8 0 0 -0.084,-0.006 z"
     style="fill:#1a1f24;fill-opacity:1" />
  <path
     id="path316"
     d="m 1149.5559,772.42986 -19.3496,20.20117 27.9805,4.05859 26.0996,4.06055 30.9199,5.75 28.1094,5.91016 21.1601,4.73047 44.4707,10.43945 51.8594,13.77934 c 36.76,10.41 73.4396,21.7914 109.0196,35.7714 22.2133,8.7334 39.9241,15.9423 53.1308,21.6289 10.88,4.6867 27.8141,12.303 50.8008,22.8497 l 38.5801,16.83 a 0.28,0.28 0 0 0 0.3496,-0.1 l 0.1387,-0.2187 a 0.34,0.34 0 0 0 -0.1094,-0.4707 l -8.1192,-5.1797 a 2.73,3.02 87.1 0 1 -0.541,-0.4414 c -5.53,-5.79 -11.1387,-10.1984 -17.2187,-15.5684 -2.6867,-2.3666 -5.4634,-4.7081 -8.3301,-7.0215 -2.9,-2.28 -5.1531,-3.9323 -6.7598,-4.959 -27.5133,-17.6066 -55.5184,-32.4307 -84.0117,-44.4707 -16.5333,-6.9866 -35.6732,-14.3591 -57.4199,-22.1191 -17.26,-6.15996 -41.903,-13.85031 -73.9297,-23.07031 l -36.8887,-9.64062 -43.5215,-9.50977 -58.7597,-11.91992 c -9.4667,-1.78 -18.9306,-3.57224 -28.3906,-5.3789 -11.39,-2.18001 -22.3785,-3.64133 -33.6485,-5.11133 -2.1666,0.16 -4.0411,-0.11675 -5.6211,-0.83008 z"
     style="fill:#5a8ab8;fill-opacity:1" />
  <path
     id="path321"
     d="m 1130.2063,792.63103 -26.9101,26.99024 c 2.4733,0.73333 5.2706,1.19533 8.3906,1.38867 11.0733,0.68 23.6772,1.79317 37.8105,3.33984 24.0534,2.17333 71.67,8.9707 71.67,8.9707 l 121.7686,25.88961 189.7685,49.8897 27.6777,9.541 27.9238,9.2188 -68.0899,-32.0698 -68.0898,-25.0699 -73.0899,-24.5698 -70.0898,-18.56984 -44.4707,-10.43945 -21.1601,-4.73047 -28.1094,-5.91016 -30.9199,-5.75 -26.0996,-4.06055 z"
     style="fill:#1f4e7a;fill-opacity:1"
     sodipodi:nodetypes="ccccccccccccccccccc" />
  <path
     id="path328"
     d="m 637.75708,818.74236 -6.56836,0.20898 -6.53125,0.71094 -8.40039,1.31836 -30.0293,3.51172 -41.25,5.55859 -52.68945,8.70114 -39.6211,7.3594 -74.34961,16.7695 -19.08007,4.8614 -49.09961,13.1191 -14.14063,4.1895 -2.96875,0.9511 -22.18164,6.9903 -12.55859,3.6582 -12.74024,4.4316 -13.54101,4.5195 -13.53907,4.5899 -3.82031,1.3105 -5.50976,1.6094 -13.72071,5.4395 -8.95898,2.9707 -7.11133,-0.8203 c 0,0 -31.24828,17.0871 -46.98828,25.4804 -7.55,4.03 -16.43789,7.2907 -23.33789,11.4707 -0.045,0.022 -0.0634,0.076 -0.041,0.1211 l 0.0996,0.2403 c 0.0519,0.1136 0.17848,0.1696 0.29102,0.1289 4.97,-1.64 10.72695,-4.0911 16.37695,-6.2911 8.07333,-3.1466 16.67412,-6.4563 25.80078,-9.9296 10.89,-4.15 37.41992,-12.9805 37.41992,-12.9805 l 34.2793,-10.9297 57.91992,-16.2813 28.16016,-7.3593 118.46094,-25.6094 120.75,-20.0098 34.77929,-4.4511 73.74024,-7.1797 0.2207,-0.66995 z"
     style="fill:#1f4e7a;fill-opacity:1"
     sodipodi:nodetypes="cccccccccccccccccccccccccccccccccccccccc" />
  <path
     id="path319"
     d="m 606.13794,787.45134 -2.00977,1.55078 0.69922,0.5293 -0.33984,0.5 -11.50977,1.40039 -36.88086,6.58985 -28.76953,5.57031 -21.56055,4.13867 -62.58984,15.16992 -30.50977,7.93164 -46.91015,13.74999 -15.0293,5.0488 -25.28906,8.7403 -28.45117,10.2793 -24.35938,9.5605 -51.33984,22.25 -23.33985,10.125 -83.22656,43.9903 46.36133,-20.9297 34.33398,-15.0957 13.72071,-5.4395 5.50976,-1.6094 3.82031,-1.3105 13.53907,-4.5899 13.54101,-4.5195 12.74024,-4.4316 12.55859,-3.6582 22.18164,-6.9903 2.96875,-0.9511 14.14063,-4.1895 49.09961,-13.1191 19.08007,-4.8614 74.34961,-16.7695 39.6211,-7.3594 52.68945,-8.70114 41.25,-5.55859 30.0293,-3.51172 8.40039,-1.31836 6.53125,-0.71094 6.56836,-0.20898 -20.53907,-19.93164 z"
     style="fill:#5a8ab8;fill-opacity:1"
     sodipodi:nodetypes="cccccccccccccccccccccccccccccccccccccccccc" />
  <rect
     style="fill:#2a3138;fill-opacity:1;stroke:none;stroke-width:0.101901;stroke-linecap:round;stroke-linejoin:round;stroke-dasharray:none;stroke-opacity:1"
     id="rect366"
     width="56.928974"
     height="54.006023"
     x="809.19092"
     y="591.20496"
     rx="1.0090507" />
  <rect
     style="fill:#2a3138;fill-opacity:1;stroke:none;stroke-width:0.101901;stroke-linecap:round;stroke-linejoin:round;stroke-dasharray:none;stroke-opacity:1"
     id="rect365"
     width="56.928974"
     height="54.006023"
     x="876.00342"
     y="591.20496"
     rx="1.0090507" />
  <rect
     style="fill:#2a3138;fill-opacity:1;stroke:none;stroke-width:0.101901;stroke-linecap:round;stroke-linejoin:round;stroke-dasharray:none;stroke-opacity:1"
     id="rect364"
     width="56.928974"
     height="54.006023"
     x="876.00342"
     y="528.4317"
     rx="1.0090507" />
  <rect
     style="fill:#2a3138;fill-opacity:1;stroke:none;stroke-width:0.101901;stroke-linecap:round;stroke-linejoin:round;stroke-dasharray:none;stroke-opacity:1"
     id="rect363"
     width="56.928974"
     height="54.006023"
     x="809.19092"
     y="528.4317"
     rx="1.0090507" />
  <path
     id="path252"
     d="M 875.06567,1.6515176e-4 A 1.39,1.37 45.4 0 0 874.37622,0.17399515 C 861.93622,6.9673252 852.92187,11.921985 847.3352,15.035325 c -26.36,14.67 -53.97,27.6782 -80.75,39.1582 -22.37333,9.59333 -37.22411,15.83714 -44.55078,18.73047 -25.46667,10.05333 -51.67867,19.49674 -78.63867,28.330085 -18.41,6.02 -38.59024,11.84125 -57.99024,17.53125 -35.14666,9.22666 -64.14356,16.06929 -86.99023,20.52929 -27.68,5.4 -55.51023,9.54612 -83.49023,12.43946 a 0.59,0.6 87.2 0 0 -0.5293,0.58008 c -0.11333,12.03333 -0.15443,33.39651 -0.12109,64.08984 0.0333,23.12667 0.53643,43.04953 1.50976,59.76953 1.34,22.84667 2.88419,42.72729 4.63086,59.64063 1.34667,13.02 3.65635,29.37388 6.92969,49.06054 1.31333,7.92 3.14047,17.28318 5.48047,28.08985 2.01333,9.26 3.98039,18.59953 5.90039,28.01953 0.79333,2.79333 1.54643,5.66776 2.25976,8.62109 2.63,10.94 6.31977,22.33016 8.50977,31.16016 1.97333,7.98 4.1462,15.11992 6.51953,21.41992 0.53333,1.41333 3.08372,9.10984 7.65039,23.08984 2.51333,7.68667 5.79937,16.50875 9.85938,26.46875 a 1.07,1.07 0 0 0 1.58007,0.49024 l 15.59961,-10.23047 a 1.08,1.09 66.5 0 0 0.46094,-1.16016 c -0.31333,-1.29333 -0.76914,-2.77898 -1.36914,-4.45898 -5.64,-15.72667 -10.57102,-30.51581 -14.79102,-44.36914 -4.10666,-13.46 -8.1489,-26.93016 -12.1289,-40.41016 -2.34,-10.38667 -4.78847,-20.74055 -7.3418,-31.06055 -1.74,-7.02666 -3.43341,-14.87744 -5.08008,-23.55078 -9.22666,-48.66 -14.33169,-97.13945 -15.31836,-145.43945 -0.54,-26.66667 -0.65007,-53.55659 -0.33008,-80.66992 a 1,0.98 85.9 0 1 0.83008,-0.9707 c 13.78,-2.18001 27.25946,-4.1893 40.43946,-6.0293 10.57333,-1.47334 24.59388,-4.11016 42.06054,-7.91016 27.3,-5.93333 54.39263,-12.65969 81.2793,-20.17969 19.34667,-5.47333 32.56682,-9.42294 39.66016,-11.84961 10.79,-3.69999 22.84078,-7.42101 33.05078,-11.04101 29.52,-10.49333 58.04479,-21.392555 85.57812,-32.699225 13.76,-5.65333 26.26,-11.18008 37.5,-16.58008 21.33334,-10.24 33.64188,-16.19776 36.92188,-17.87109 9.12666,-4.68 22.84177,-11.96914 41.14844,-21.86914 1.14666,-0.62 2.36992,-0.58706 3.66992,0.0996 3.95333,2.08666 6.80721,3.64325 8.56054,4.66992 5.51,3.21 12.30016,5.71047 17.66016,8.98047 5.57,3.4 12.10008,6.02086 17.08008,8.88086 3.47,1.99 6.65945,2.96867 10.93945,5.13867 3.09333,1.57333 8.84643,4.42411 17.25977,8.55078 5.64,2.76667 11.47023,5.43024 17.49023,7.99023 8.66,3.67334 17.24333,7.52527 25.74997,11.5586 5.14,2.43333 11.77072,5.22443 19.89072,8.37109 6.0733,2.35334 12.7194,5.14248 19.9394,8.36914 5.04,2.26 10.8911,4.171105 16.3711,6.121105 6.2067,2.78 12.5524,5.19976 19.0391,7.25976 4.1666,1.32 7.893,2.64209 11.1797,3.96875 3.16,1.27334 6.877,2.63847 11.1503,4.0918 19.7267,6.73333 39.0097,12.78992 57.8497,18.16992 6.0733,1.74 10.1031,2.85318 12.0898,3.33984 10.87,2.66 19.9898,5.98016 30.2598,8.16016 5.7866,1.23333 14.0634,3.22518 24.83,5.97852 10.28,2.63 25.7102,5.48054 35.4102,7.56054 7.0933,1.52667 16.0274,2.98753 26.8008,4.38086 11.9066,1.53334 21.9241,2.9593 30.0508,4.2793 a 1.39,1.4 4.6 0 1 1.1699,1.38086 c 0.033,5.36 0.016,21.05961 -0.051,47.09961 -0.16,61.07 -4.5403,121.18922 -16.3203,180.69922 -1.82,9.18 -3.5397,17.78984 -5.9297,27.33984 -0.7133,2.86667 -2.1207,8.89031 -4.2207,18.07031 -1.5533,6.79334 -3.9495,15.54953 -7.1895,26.26954 -7.0866,23.49333 -14.7234,46.49643 -22.9101,69.00976 a 2.46,2.45 27.4 0 0 0.9101,2.85156 l 15.1993,10.5293 a 0.64,0.64 0 0 0 0.9804,-0.34961 c 1.76,-6.03 5.1506,-12.20047 7.3106,-18.73047 4.34,-13.14666 7.5066,-22.51604 9.5,-28.10937 4.71,-13.18 7.229,-23.32071 12.039,-39.97071 2.7267,-9.48 7.238,-29.00674 13.5313,-58.58007 4.7467,-24.19334 7.6901,-40.77977 8.8301,-49.75977 5.9933,-47.2 8.8956,-94.45 8.709,-141.75 -0.08,-19.9 0,-40.76628 0.25,-62.59961 a 1.18,1.18 0 0 0 -1.0098,-1.17969 c -9.27,-1.39 -21.4989,-2.27117 -27.8789,-3.20117 -24.66,-3.57333 -43.3317,-6.78534 -56.0117,-9.63867 -4.94,-1.11333 -14.009,-3.20482 -27.209,-6.27148 -18.04,-4.19334 -30.7036,-7.3662 -37.9903,-9.51954 -12.07,-3.57 -23.9794,-6.36906 -36.4394,-10.28906 -3.4733,-1.09333 -7.8067,-2.41427 -13,-3.96094 -20.6867,-6.16 -46.8111,-15.299925 -78.3711,-27.419925 -10.96,-4.38 -22.4594,-8.68078 -32.8594,-13.30078 -2.64,-1.17333 -7.0958,-3.0551 -13.3691,-5.64844 -15.00002,-6.2 -28.1202,-12.8007 -41.6602,-18.9707 -8.98666,-4.10667 -16.77776,-7.79698 -23.37109,-11.07031 -10.96,-5.45 -25.16031,-12.30985 -38.07031,-19.33985 -6.10667,-3.32666 -12.89581,-6.7134898 -20.36914,-10.1601498 -1.75,-0.81 -3.39024,-2.12055 -4.99024,-3.06055005 A 1.39,1.37 45.4 0 0 875.06547,1.5515176e-4 Z"
     style="fill:#6b7079;fill-opacity:1" />
  <path
     id="path253"
     style="fill:#1a1f24;fill-opacity:1"
     d="m 875.31372,42.228685 a 0.83,0.85 45.7 0 0 -0.33789,0.0957 c -9.95,5.19 -19.80141,10.7593 -29.44141,15.5293 -11.53333,5.70666 -18.11977,8.95976 -19.75976,9.75976 -28.14667,13.71334 -51.81335,24.36761 -71,31.96094 -4.67334,1.853335 -9.08691,3.677375 -13.24024,5.470705 -3.41333,1.47334 -7.8393,3.25938 -13.2793,5.35938 -15.99,6.18 -27.12,10.57078 -42,15.80078 -11.7,4.12 -22.58372,7.90914 -32.65039,11.36914 -7.33,2.52 -14.04,4.43016 -19.25,6.16016 -9.07,3.01 -17.89898,5.12078 -26.45898,7.80078 -3.94667,1.23333 -7.92302,2.38255 -11.92969,3.44922 -21.02,5.60666 -42.14133,10.86906 -63.36133,15.78906 -16.75,3.4 -33.99031,7.29008 -50.32031,9.58008 -12.17333,1.70666 -22.10859,3.19427 -29.80859,4.46093 a 0.55,0.56 85 0 0 -0.46094,0.53907 c -0.31333,21.58 -0.35867,40.79086 -0.13867,57.63086 0.23333,17.47333 1.24263,36.69349 3.02929,57.66015 3,35.27 7.49891,69.23031 14.62891,102.57031 3.46,16.16667 5.19451,24.2655 5.20117,24.29883 3.02,13.06667 7.33899,29.41125 12.95899,49.03125 3.22,11.24 7.93086,23.34938 11.13086,34.35938 0.47333,1.62666 1.77682,4.94255 3.91015,9.94922 a 0.45,0.45 0 0 0 0.86914,-0.17969 l -0.11914,-139.75 c -2.06666,-6.19333 -3.62015,-12.52047 -4.66015,-18.98047 -4.74,-29.61 -8.43032,-59.79906 -9.82032,-90.28906 -0.88,-19.51334 -1.21333,-37.54318 -1,-54.08985 0.0133,-1.31333 0.70365,-2.10753 2.07032,-2.38085 7.94666,-1.61334 15.84278,-3.07534 23.68945,-4.38868 7.17,-1.2 15.38961,-3.15164 23.09961,-4.68164 l 48.31055,-11.53906 32.67968,-8.94922 43.06055,-13.36133 c 27.22,-8.76 54.23745,-18.37317 81.05078,-28.83984 34.08667,-13.80667 67.64326,-28.84581 100.66992,-45.119145 l 22.5586,-11.40039 7.75,-5.14063 a 1.71,1.7 46 0 1 1.9414,0.041 c 6.83,4.96 18.39836,9.02898 22.81836,11.45898 10.65,5.86 21.46188,10.551495 32.67188,16.021495 15.54,7.58 31.19851,14.84239 46.97851,21.78906 14.68005,6.34 29.33147,12.86 44.27147,18.5 3.4734,1.31333 7.9354,3.01603 13.3887,5.10938 20.4,7.85333 42.3578,15.53124 65.8711,23.03124 l 25.3496,7.79883 20.4902,5.65039 30.9102,7.93946 34.25,7.48047 c 19.4333,4.04666 32.4488,6.6238 39.0488,7.73046 1.24,0.21334 2.1679,0.54667 2.7813,1 a 1,1.01 18 0 1 0.4101,0.81055 c -0.1266,12.41333 -0.1739,21.89589 -0.1406,28.44922 0.12,26.02 -1.7668,53.7638 -5.6601,83.23047 -5.8534,44.32667 -15.0704,87.72898 -27.6504,130.20898 -2.77,9.33 -7.2693,22.5211 -10.9493,34.6211 -1.5533,5.1 -3.7231,10.54961 -6.5097,16.34961 l 31.2695,21.3789 a 0.7,0.7 0 0 0 1.0391,-0.31836 c 9.57,-24.82 18.3415,-50.69117 25.2715,-76.70117 3.6066,-12.40667 6.7764,-24.91906 9.5097,-37.53906 1.2067,-5.56667 1.9598,-8.99768 2.2598,-10.29102 2.69,-11.35 4.3194,-22.44882 6.6094,-35.04883 1.36,-7.46666 2.6162,-15.75776 3.7695,-24.87109 1.52,-12.00667 2.9212,-24.01906 4.2012,-36.03906 0.1733,-1.8 0.3287,-3.5911 0.4687,-5.37109 2.26,-28.67334 3.367,-55.95938 3.3203,-81.85938 -0.02,-12.70667 -0.097,-25.0369 -0.2304,-36.99023 a 0.45,0.46 4.4 0 0 -0.3789,-0.44922 c -23.79,-3.7 -35.44,-5.08086 -53.17,-8.88086 -5.8266,-1.25334 -13.1867,-2.83047 -22.08,-4.73047 -10.77,-2.3 -20.2798,-5.11961 -30.5098,-7.34961 -6.73,-1.47 -16.2613,-4.72914 -24.6113,-6.61914 -36.6467,-9.94667 -72.8052,-21.80983 -108.4786,-35.58985 -16.2333,-6.26666 -29.0162,-11.30466 -38.3496,-15.11132 -9.2733,-3.78667 -22.28762,-9.391705 -39.041,-16.818365 -6.51333,-2.88667 -9.99588,-4.43396 -10.44922,-4.64063 -16.78,-7.54 -32.79125,-15.09349 -48.03125,-22.66015 -1.94666,-0.96667 -3.86023,-1.96357 -5.74023,-2.99024 -4.74,-2.59 -9.49852,-4.57914 -14.47852,-7.11914 -8.17333,-4.16667 -14.71442,-7.51745 -19.62109,-10.05078 a 0.83,0.85 45.7 0 0 -0.45117,-0.0957 z M 1253.8352,460.98455 c -0.72,2.9175 -2.4701,7.16203 -3.1816,11.30859 0.7117,-4.14632 2.4616,-8.39109 3.1816,-11.30859 z m -3.4531,15.53125 a 1.16,1.16 0 0 0 2.2539,0.1289 1.16,1.16 0 0 1 -2.2539,-0.1289 z" />
  <path
     id="path254"
     d="m 873.8059,81.482585 a 1.71,1.7 46 0 0 -0.86132,0.28125 l -7.75,5.14063 -22.5586,11.40039 C 809.60932,114.57819 776.05273,129.61733 741.96606,143.424 c -26.81333,10.46667 -53.83078,20.07984 -81.05078,28.83984 l -43.06055,13.36133 -32.67968,8.94922 -48.31055,11.53906 c -7.71,1.53 -15.92961,3.48164 -23.09961,4.68164 -7.84667,1.31334 -15.74279,2.77534 -23.68945,4.38868 -1.36667,0.27332 -2.05698,1.06752 -2.07032,2.38085 -0.21333,16.54667 0.12,34.57651 1,54.08985 1.39,30.49 5.08032,60.67906 9.82032,90.28906 1.04,6.46 2.59349,12.78714 4.66015,18.98047 l 99.53907,-0.37891 26.11132,0.14844 a 0.9,0.91 0 0 1 0.89844,0.91016 v 60.77148 a 0.47,0.47 0 0 0 0.74024,0.37891 l 64.71093,-46.20899 106.23047,-75.25976 56.75,-40.08008 11.68945,-8.58008 a 0.69,0.69 0 0 1 0.81055,-0.0117 l 64.64844,45.33008 41.41992,29.3418 94.84178,67.38867 67.7891,48.49023 63.5508,45.82032 c 2.7866,-5.8 4.9564,-11.24961 6.5097,-16.34961 3.68,-12.1 8.1793,-25.2911 10.9493,-34.6211 12.58,-42.48 21.797,-85.88231 27.6504,-130.20898 3.8933,-29.46667 5.7801,-57.21047 5.6601,-83.23047 -0.033,-6.55333 0.014,-16.03589 0.1406,-28.44922 a 1,1.01 18 0 0 -0.4101,-0.81055 c -0.6134,-0.45333 -1.5413,-0.78666 -2.7813,-1 -6.6,-1.10666 -19.6155,-3.6838 -39.0488,-7.73046 l -34.25,-7.48047 -30.9102,-7.93946 -20.4902,-5.65039 -25.3496,-7.79883 c -23.5133,-7.5 -45.4711,-15.17791 -65.8711,-23.03124 -5.4533,-2.09335 -9.9153,-3.79605 -13.3887,-5.10938 -14.9397,-5.6399 -29.59172,-12.16011 -44.27147,-18.5 -15.78,-6.94667 -31.43851,-14.20906 -46.97851,-21.78906 -11.21,-5.47 -22.02188,-10.161495 -32.67188,-16.021495 -4.42,-2.43 -15.98836,-6.49898 -22.81836,-11.45898 a 1.71,1.7 46 0 0 -1.08008,-0.32227 z"
     style="fill:#5a8ab8;fill-opacity:1" />
  <path
     id="path274"
     d="m 870.63012,297.69744 a 0.56,0.54 44.3 0 0 -0.27539,0.0977 l -36.75976,26.33008 -62.68946,44.68945 -86.56054,61.91016 -89.53907,65.46875 -0.23046,-43.39844 0.31054,-42.83984 a 0.71,0.72 82.6 0 1 0.53907,-0.69141 c 6.14666,-1.59333 12.35442,-4.51 18.62109,-8.75 a 0.68,0.68 0 0 0 -0.37109,-1.24023 l -32.00977,-0.5293 -59.93945,-0.0703 a 0.49,0.49 0 0 0 -0.49024,0.49023 v 143.91993 a 2.22,2.24 72 0 1 -0.92969,1.81054 L 212.75512,764.49431 a 0.48,0.48 0 0 0 0.38086,0.85938 c 23.07,-5.3 45.14946,-11.00016 65.18946,-15.91016 9.98,-2.44 18.91984,-5.21984 27.58984,-6.83984 3.32,-0.62 10.19753,-2.332 20.63086,-5.13868 2.82,-0.75333 8.55255,-2.08356 17.19922,-3.99023 9.65,-2.12 19.34086,-4.92094 30.13086,-7.21094 0.85333,-0.18 5.16612,-1.22534 12.93945,-3.13867 11.72667,-2.89333 20.99216,-5.08984 27.79883,-6.58984 3.96,-0.88 8.28055,-2.03117 11.56055,-4.45117 36.44666,-26.86 77.96101,-57.74993 124.54101,-92.66993 15.21,-11.4 31.03961,-22.80898 45.84961,-33.70898 44.61333,-32.84667 74.55365,-54.88466 89.82031,-66.11133 16.62,-12.21333 33.25683,-24.44898 49.91016,-36.70898 l 85.94922,-63.58985 47.93945,-35.83984 a 0.71,0.71 0 0 1 0.83985,0 l 35.86132,26.71875 101.28912,75.16016 c 20.2932,14.85327 40.6266,29.66308 61,44.42968 4.6133,3.34 9.2141,6.74737 13.8007,10.22071 6.7,5.07333 11.2834,8.50239 13.75,10.28906 12.6,9.1 24.8297,18.63125 37.0997,27.53125 18.86,13.69 44.4396,32.52945 64.9296,47.93945 9.74,7.32 24.3862,18.19753 43.9395,32.63086 29.2933,21.62 61.6565,45.52852 97.0898,71.72852 a 7.69,7.64 68.3 0 0 3.2012,1.39062 c 13.78,2.45334 25.3633,4.69094 34.75,6.71094 6.1067,1.31333 11.366,2.37612 15.7793,3.18945 13.76,2.53 28.5205,6.00891 39.4805,8.12891 14.99,2.9 24.7691,5.47133 37.3691,7.61133 13.43,2.28 26.4313,5.64953 39.0313,8.01953 11.2733,2.12 21.4431,4.21263 30.5097,6.2793 a 0.39,0.39 0 0 0 0.4102,-0.60938 c -0.4667,-0.67333 -1.1477,-1.3307 -2.041,-1.9707 -13.3867,-9.56 -35.0925,-24.84604 -65.1192,-45.85938 -18.3533,-12.84666 -40.0467,-28.10286 -65.08,-45.76953 -77.4534,-54.68667 -155.1735,-109.0107 -233.1602,-162.9707 l -111.2793,-79.19922 -25.6816,-18.41992 -61.25006,-43.6211 -82.73828,-58.70898 -22.98047,-16.50977 a 0.56,0.54 44.3 0 0 -0.35547,-0.0977 z"
     style="fill:#1f4e7a;fill-opacity:1" />
  <path
     id="path310"
     d="m 599.48528,635.82439 c 9.71,14.15 19.71,29.17 29.67,42.01 28.92667,37.28667 61.07333,70.63667 96.44,100.05 8.62667,7.17333 19.57,15.71333 32.83,25.62 13.09333,9.77333 24.40667,17.79333 33.94,24.06 14.35333,9.4333 29.59333,18.71 45.72,27.83 7.62667,4.3133 33.59283,18.013 33.59283,18.013 0,0 0.69853,-0.4552 0.73717,-0.493 10.53,-6.11 26.87,-14.5 40.43,-22.51 16.74667,-9.88 31.43667,-19.07333 44.07,-27.58 14.64,-9.85333 30.1733,-21.23667 46.60002,-34.15 21.8933,-17.20667 42.4,-35.7 61.52,-55.48 23.3467,-24.14667 44.54,-49.53667 63.58,-76.17 2.6,-3.62667 8.0233,-11.55 16.27,-23.77 3.36,1.89333 6.2833,3.75333 8.77,5.58 2.4333,1.78667 6.3567,4.78333 11.77,8.99 2.8533,2.22 4.8733,5.47667 6.06,9.77 -3.91,5.84 -7.61,12.22 -11.56,17.57 -7.71,10.45 -15.3,21.2 -23.29,31.2 -11.05,13.82 -22.43,27.55 -31.67,37.27 -1.1467,1.20667 -4.5367,4.81333 -10.17,10.82 -13.76,14.68667 -29.9167,29.94667 -48.47,45.78 -37.0733,31.65333 -77.18002,59.8833 -120.32002,84.69 -19.23,11.06 -36.81,20.59 -53.96,28.52 -0.0322,0.026 -1.00625,0.3759 -1.00625,0.3759 0,0 -7.71375,-3.0259 -10.52375,-4.6659 -5.82,-3.37 -12.54,-6.11 -17.94,-9.2 -26.92,-15.38 -43.17667,-24.8767 -48.77,-28.49 -19.82,-12.7933 -31.84333,-20.7033 -36.07,-23.73 -17.54667,-12.56667 -29.06667,-21.12333 -34.56,-25.67 -18,-14.9 -37.09,-29.89 -53.13,-46.05 -6.51,-6.57 -15.71,-14.87 -22.99,-22.69 -9.33333,-10.03333 -17.05,-18.47667 -23.15,-25.33 -9.8,-11 -17.05,-20.73 -27.36,-33.77 -3.02667,-3.83333 -6.48,-8.51333 -10.36,-14.04 -6.2,-8.83333 -12.31667,-17.83667 -18.35,-27.01 -3.49333,-5.30667 -6.89,-10.88333 -10.19,-16.73 -0.29618,-0.52057 -0.14513,-1.18522 0.35,-1.54 l 14.02,-10 c 11.12,0.58 18.69,4.57 27.47,10.92 z m 534.46002,-37.57 50.19,36.69 c 0.486,0.36118 0.6162,1.03355 0.3,1.55 l -12.95,21.1 c -1.1867,-4.29333 -3.2067,-7.55 -6.06,-9.77 -5.4133,-4.20667 -9.3367,-7.20333 -11.77,-8.99 -2.4867,-1.82667 -5.41,-3.68667 -8.77,-5.58 l -28,-21.61 c 4.5133,-6.23333 10.2,-10.69667 17.06,-13.39 z m -40.77,-30.06 40.77,30.06 c -6.86,2.69333 -12.5467,7.15667 -17.06,13.39 l -40.24,-30.5 c 4.76,-5.67 8.7,-11.81 16.53,-12.95 z m -447.28002,27.12 -47.53,36.8 -0.92291,0.66563 2.04291,3.04437 -27.47,-10.92 61.26,-45.64 c 3.06,-0.14667 5.20333,0.51333 6.43,1.98 2.05333,2.45333 4.13667,4.91 6.25,7.37 2.12,2.47 1.89,4.3 -0.06,6.7 z m 47.35,-36.13 -47.35,36.13 c 1.95,-2.4 2.18,-4.23 0.06,-6.7 -2.11333,-2.46 -4.19667,-4.91667 -6.25,-7.37 -1.22667,-1.46667 -3.37,-2.12667 -6.43,-1.98 l 43.97,-32.45 c 4.69333,-1.74667 8.04,-0.77 10.04,2.93 1.73333,3.20667 3.72,6.35333 5.96,9.44 z m 325.20002,-45.43 74.73,54.44 c -7.83,1.14 -11.77,7.28 -16.53,12.95 l -77.75002,-59.55 z m -48.44002,-35.55 48.44002,35.55 -19.55002,7.84 -47.8,-36.42 c 5.93333,-3.31333 12.23667,-5.63667 18.91,-6.97 z m 0,0 c -6.67333,1.33333 -12.97667,3.65667 -18.91,6.97 l -79.41,-59.82 -1.11125,-0.53297 -88.00875,66.57297 c -6.52667,-1.82667 -12.64,-4.43 -18.34,-7.81 11.42,-9.3 27.39,-20.25 35.39,-26.21 9.91333,-7.38 22.08667,-16.35333 36.52,-26.92 12.4,-9.08 22.91,-16.15 33.9,-24.55 0.45582,-0.348 1.08511,-0.35209 1.54,-0.01 z m -205.78,5.38 c 5.7,3.38 11.81333,5.98333 18.34,7.81 l -26.67,20.28 -23.51,-4.96 z m -8.33,28.09 -62.65,47.51 c -2.24,-3.08667 -4.22667,-6.23333 -5.96,-9.44 -2,-3.7 -5.34667,-4.67667 -10.04,-2.93 l 55.14,-40.1 z"
     style="fill:#1a1f24;fill-opacity:1"
     sodipodi:nodetypes="cccccscccccccccccccccccccccccccccccccccccccccccccccccccccccccccccccccscccccccccccccccccccccccccccccsccc" />
  <path
     fill="#161616"
     d="m 526.34528,657.21439 15.08,-10.77 a 1.29,1.29 0 0 1 1.78,0.28 q 2.43,3.24 4,5.8 c 5.2,8.49 12.26,18.16 17.77,26.71 q 4.26,6.6 8.62,12.38 c 10.07,13.33 17.77,24.48 28.47,36.18 q 2.7,2.95 10.71,12.42 c 11.86,14.04 24.52,26.4 38.63,40.87 7.79,7.99 15.27,14.12 24.28,22.67 7.69,7.3 18.01,15.64 26.22,22.61 q 14.47,12.28 37.99,29.23 28.76,20.73 62.05,40.89 7.79,4.73 17.82,10.2 c 8.77,4.79 15.45,8.97 23.96,13.32 q 10.94,5.6 27.49,13.58 a 0.94,0.92 41.8 0 0 0.87,-0.04 c 6.41,-3.86 13.15,-6.83 20.17,-10.59 q 12.04,-6.45 24.35,-13.2 30.59,-16.76 64.9,-39.6 31.11002,-20.69 58.07002,-42.68 3.48,-2.83 13.48,-11.51 27.76,-24.1 39.81,-36.45 6.37,-6.53 15.96,-16.38 8.08,-8.28 15.55,-16.75 15.6,-17.71 18.33,-21.01 17.7,-21.37 36.28,-48.21 8.02,-11.59 10.58,-15.87 c 3.24,-5.43 6.53,-9.66 9.62,-14.81 a 0.85,0.85 0 0 1 1.23,-0.25 l 15.21,11.26 a 1.15,1.15 0 0 1 0.3,1.51 q -13.4,22.11 -28.9,43.46 -13.27,18.29 -20.77,27.72 c -8.42,10.6 -18.04,22.02 -28.02,32.67 q -17.32,18.48 -21.91,23.13 -27.12,27.5 -50.75,47.24 -7.14,5.97 -16.87,13.96 -11.12,9.13 -17.13,13.67 -54.83002,41.41 -115.67002,73.93 -15.23,8.15 -41.29,21.25 -1.62,0.81 -3.12,1.26 a 1.55,1.59 51 0 1 -1.11,-0.1 c -16.39,-7.96 -28.27,-13.65 -42.77,-21.75 -9.64,-5.37 -17.62,-9.39 -26.96,-14.9 q -36.93,-21.75 -72.04,-46.68 -18.94,-13.45 -43.39,-33.85 c -5.09,-4.24 -12.01,-10.6 -15.96,-14.07 q -16.33,-14.33 -18.25,-16.22 -16,-15.79 -27.47,-27.03 c -8.16,-8 -15.75,-16.8 -23.53,-25.23 q -12.88,-13.97 -29.54,-34.7 c -7.74,-9.63 -13.47,-18.28 -20.54,-28.01 -7.49,-10.3 -13.55,-19.93 -22.29,-33.42 q -0.97,-1.5 -1.61,-3.01 a 0.92,0.92 0 0 1 0.31,-1.11 z"
     id="path311"
     style="fill:#6b7079;fill-opacity:1" />
  <path
     id="path313"
     style="fill:#000000;fill-opacity:0"
     d="m 584.05786,762.20525 c -0.0876,5.5e-4 -0.17501,0.007 -0.26172,0.0195 l -5.74024,0.78906 c -6.76,0.91334 -13.55109,1.95753 -20.37109,3.13086 -28.42,4.9 -44.11031,7.60891 -47.07031,8.12891 -9.00667,1.58 -29.02836,5.86489 -60.06836,12.85156 -10.7,2.40667 -23.2349,5.54659 -37.60156,9.41992 -23.02667,6.2 -35.49683,9.58683 -37.41016,10.16016 -25.03333,7.57333 -47.25969,15.09503 -66.67969,22.56836 -21.44,8.25341 -43.81557,18.08671 -67.1289,29.50001 l -26.58008,13.75 c -14.94,7.5867 -29.38031,16.0239 -43.32031,25.3106 l -9.13086,5.9511 c -18.97334,12.42 -35.62256,27.3727 -49.94922,44.8594 -2.76,3.36 -3.81953,5.2006 -6.51953,9.3906 -0.38437,0.5841 0.25705,1.2982 0.8789,0.9786 48.09422,-55.9905 -0.20188,0.075 -0.0899,0.035 4.97,-1.64 14.53945,-6.0441 20.18945,-8.2441 8.07334,-3.1467 16.67412,-6.4564 25.80078,-9.9297 10.89,-4.15 25.02993,-8.3805 37.41993,-12.9805 11.55,-3.14 22.82929,-7.3897 34.27929,-10.9297 18.48,-5.7 44.20188,-12.3212 57.92188,-16.2812 9.08,-2.62 18.46487,-5.0727 28.1582,-7.3594 48.04,-11.32 87.5276,-19.856 118.46094,-25.6094 39.65,-7.37 80.19,-14.3397 120.75,-20.0097 l 34.7793,-4.4512 73.74023,-7.17973 c 0.32705,-0.0404 0.4597,-0.44305 0.2207,-0.66992 L 639.21601,817.6935 618.675,797.76381 607.59492,786.40444 585.46601,762.81459 c -0.36282,-0.39029 -0.87329,-0.61119 -1.4082,-0.60937 z"
     sodipodi:nodetypes="scccccccccccccccccccccccccccccccss" />
  <path
     fill="#031d41"
     d="m 1026.5553,1056.2044 a 0.44,0.43 30.3 0 1 -0.63,0.16 q -19.3,-12.99 -41.46002,-17.07 -9.59,-1.76 -18.3,1 c -2.61,0.83 -5.87,2.27 -7.42,4.83 q -3.32,5.51 0.11,11.34 c 2.9,4.94 11.62,8.3 16.84,9.82 q 28.04002,8.13 34.62002,10.4 c 11.34,3.9 23.53,11.13 29.66,21.63 q 4.97,8.51 5.62,18.75 c 1.66,26.27 -14.62,44.02 -38.95,51.32 -34.23002,10.26 -73.77002,0.2 -101.38002,-22.2 a 0.32,0.32 0 0 1 -0.08,-0.41 l 17.49,-32.01 a 0.67,0.66 34.4 0 1 1.02,-0.19 q 20.23,17.36 45.51,22.48 11.78,2.38 22.72,-0.93 6.23,-1.89 8.46002,-8.05 c 2.3,-6.3 -2.96002,-12.46 -8.51002,-14.97 -15.96,-7.26 -35.08,-9.47 -51.32,-16.67 -12.83,-5.69 -23.41,-15.33 -26.49,-29.15 -3.53,-15.84 -0.43,-34.59 12.63,-45.65 4.39,-3.72 9.32,-7.46 14.99,-9.77 q 12.27,-4.99 23.98,-6.23 c 26.38,-2.78 55.73002,2.56 77.63002,18.11 a 0.42,0.42 0 0 1 0.13,0.53 z"
     id="path337"
     style="fill:#1f4e7a;fill-opacity:1" />
  <path
     fill="#031d41"
     d="m 139.17528,1022.8744 a 0.28,0.28 0 0 1 0.1,0.37 l -17.78,32.52 a 0.47,0.47 0 0 1 -0.63,0.19 c -1.33,-0.7 -2.78,-1.98 -3.92,-2.54 q -11.79,-5.76 -18.58,-8.56 -9.13,-3.77 -22.19,-5.54 -8.15,-1.1 -16.2,1.53 c -6.05,1.97 -9.79,7.63 -7.01,13.91 2.28,5.17 10.44,9.24 15.59,10.69 q 23.15,6.53 35.21,10.3 5.68,1.77 13.88,6.14 c 11.08,5.91 20.48,16.05 22.77,28.67 1.76,9.72 1.37,21.23 -2.7,30 -4.95,10.66 -13,18.33 -23.53,23.53 -10.41,5.14 -23.9,8.09 -36.1,8.44 -27.85,0.8 -56.27,-7.89 -77.76000023,-26.26 a 0.92,0.93 35.2 0 1 -0.2,-1.17 l 18.21000023,-31.55 a 0.46,0.45 37.8 0 1 0.72,-0.09 c 8.78,9.02 21.52,15.51 33.13,19.85 10.59,3.96 25.04,6.03 36.34,1.89 8.01,-2.94 11.47,-11.78 5.7,-18.71 -3.09,-3.72 -8.71,-5.61 -14.22,-7.62 -7.98,-2.92 -20.52,-5.28 -24.88,-6.74 q -1.4,-0.47 -12.96,-4.32 c -13.53,-4.51 -27.83,-13.77 -32.05,-28.18 -7.5400002,-25.73 4.21,-49.76 29.02,-59.61 q 11.79,-4.68 25.01,-5.58 c 23.09,-1.57 45.13,2.69 65.57,13.34 q 7.85,4.09 9.46,5.1 z"
     id="path338"
     style="fill:#1f4e7a;fill-opacity:1" />
  <path
     fill="#031d41"
     d="m 495.20528,1170.3244 a 0.53,0.54 0 0 1 -0.53,-0.54 v -163.31 a 0.6,0.59 0 0 1 0.6,-0.59 h 41.18 a 0.57,0.57 0 0 1 0.57,0.57 c -0.26,47.65 -0.38,89.26 0.22,125.84 a 0.85,0.85 0 0 0 0.85,0.84 h 67.73 a 0.43,0.43 0 0 1 0.43,0.43 v 36.29 a 0.47,0.47 0 0 1 -0.47,0.47 z"
     id="path339"
     style="fill:#1f4e7a;fill-opacity:1" />
  <path
     fill="#031d41"
     d="m 1066.2253,1170.2544 a 0.69,0.7 0 0 1 -0.69,-0.7 q -0.02,-10.89 -0.05,-158.66 0,-2.39 0.4,-4.32 a 0.69,0.67 5.7 0 1 0.67,-0.54 h 40.92 a 0.61,0.61 0 0 1 0.61,0.61 v 65.92 a 0.79,0.78 0 0 0 0.79,0.78 h 64 a 0.84,0.84 0 0 0 0.84,-0.84 v -65.94 a 0.54,0.54 0 0 1 0.54,-0.54 h 42.51 a 0.2,0.21 0 0 1 0.2,0.21 v 163.63 a 0.48,0.49 0 0 1 -0.48,0.49 h -42.13 a 0.63,0.63 0 0 1 -0.63,-0.63 v -61.99 a 0.86,0.87 0 0 0 -0.86,-0.87 h -64.11 a 0.66,0.66 0 0 0 -0.66,0.66 v 61.9 a 0.83,0.83 0 0 1 -0.83,0.83 z"
     id="path340"
     style="fill:#1f4e7a;fill-opacity:1" />
  <rect
     fill="#031d41"
     x="1245.3652"
     y="1006.0143"
     width="42.939999"
     height="164.3"
     rx="0.63999999"
     id="rect340"
     style="fill:#1f4e7a;fill-opacity:1" />
  <path
     fill="#031d41"
     d="m 1359.5753,1105.4344 a 0.94,0.94 0 0 0 -0.94,0.94 v 28.05 a 0.78,0.78 0 0 0 0.78,0.78 h 82.48 a 0.57,0.57 0 0 1 0.57,0.57 v 33.89 a 0.88,0.89 0 0 1 -0.88,0.89 h -124.07 a 0.82,0.82 0 0 1 -0.81,-0.72 q -0.35,-2.66 -0.36,-10.76 c -0.1,-54.22 -0.48,-103.83 0.15,-152.58 a 0.51,0.51 0 0 1 0.51,-0.5 h 122.14 a 0.67,0.67 0 0 1 0.67,0.67 v 33.66 a 0.8,0.8 0 0 1 -0.8,0.8 h -79.57 a 0.8,0.8 0 0 0 -0.8,0.8 v 27.75 a 1.13,1.14 0 0 0 1.13,1.14 h 72.23 a 0.56,0.55 0 0 1 0.56,0.55 v 33.35 a 0.73,0.72 0 0 1 -0.73,0.72 z"
     id="path341"
     style="fill:#1f4e7a;fill-opacity:1" />
  <path
     fill="#031d41"
     d="m 1506.5053,1006.8744 v 124.55 a 1.62,1.62 0 0 0 1.62,1.62 h 65.6 a 0.87,0.86 0 0 1 0.87,0.86 v 35.66 a 0.75,0.75 0 0 1 -0.75,0.75 h -109 a 0.54,0.54 0 0 1 -0.54,-0.52 q -0.2,-5.8 -0.21,-13.47 -0.14,-95.42 -0.02,-146 0,-0.88 0.39,-3.71 a 0.73,0.73 0 0 1 0.72,-0.63 h 40.44 a 0.88,0.89 0 0 1 0.88,0.89 z"
     id="path342"
     style="fill:#1f4e7a;fill-opacity:1" />
  <path
     fill="#031d41"
     d="m 203.91528,1135.2044 h 83.22 a 0.88,0.88 0 0 1 0.88,0.88 v 33.34 a 0.88,0.88 0 0 1 -0.88,0.88 h -125.23 a 0.88,0.88 0 0 1 -0.88,-0.88 v -162.48 a 0.88,0.88 0 0 1 0.88,-0.88 h 123.62 a 0.88,0.88 0 0 1 0.88,0.88 v 33.37 a 0.88,0.88 0 0 1 -0.88,0.88 h -81.58 a 0.88,0.88 0 0 0 -0.88,0.88 v 27.86 a 0.88,0.88 0 0 0 0.88,0.88 h 72.08 a 0.88,0.88 0 0 1 0.88,0.88 v 32.87 a 0.88,0.88 0 0 1 -0.88,0.88 h -72.11 a 0.88,0.88 0 0 0 -0.88,0.88 v 28 a 0.88,0.88 0 0 0 0.88,0.88 z"
     id="path343"
     style="fill:#1f4e7a;fill-opacity:1" />
  <path
     fill="#031d41"
     d="m 433.70528,1169.9044 -11.45,-29.57 a 0.4,0.4 0 0 0 -0.37,-0.26 h -69.12 a 0.4,0.4 0 0 0 -0.37,0.25 l -11.75,29.63 a 0.4,0.4 0 0 1 -0.37,0.25 h -42.84 a 0.4,0.4 0 0 1 -0.37,-0.56 l 70.35,-163.22 a 0.4,0.4 0 0 1 0.36,-0.24 h 42.57 a 0.4,0.4 0 0 1 0.36,0.24 l 69.12,163.18 a 0.4,0.4 0 0 1 -0.36,0.56 h -45.39 a 0.4,0.4 0 0 1 -0.37,-0.26 z m -68.06,-63.29 a 0.36,0.36 0 0 0 0.34,0.49 l 43.52,0.08 a 0.36,0.36 0 0 0 0.33,-0.49 l -21.66,-55.28 a 0.36,0.36 0 0 0 -0.67,0 z"
     id="path344"
     style="fill:#1f4e7a;fill-opacity:1" />
  <path
     fill="#031d41"
     d="m 1746.0653,1088.0444 c 0.01,6.94 -0.34,14.3 -2,20.68 q -10.4,40 -48.15,54.65 c -13.55,5.26 -27.5,6.88 -43.29,6.9 q -29.93,0.03 -60.79,0.03 a 0.57,0.58 89.9 0 1 -0.58,-0.57 q -0.13,-18.76 -0.19,-81.55 -0.05,-62.79 0.05,-81.55 a 0.58,0.57 0 0 1 0.58,-0.58 q 30.86,-0.05 60.79,-0.07 c 15.79,-0.01 29.74,1.59 43.3,6.82 q 37.77,14.59 48.24,54.57 c 1.67,6.38 2.04,13.73 2.04,20.67 z m -112.08,-44.63 v 89.82 a 1.95,1.95 0 0 0 1.95,1.95 h 23.61 a 43.34,43.84 0 0 0 43.34,-43.84 v -6.04 a 43.34,43.84 0 0 0 -43.34,-43.84 h -23.61 a 1.95,1.95 0 0 0 -1.95,1.95 z"
     id="path345"
     style="fill:#1f4e7a;fill-opacity:1" />
  <g
     id="g211"
     transform="translate(-15.83472,-163.42561)">
    <rect
       style="fill:#6b7079;fill-opacity:1;stroke:none;stroke-width:0.1;stroke-linecap:round;stroke-linejoin:round;stroke-dasharray:none;stroke-opacity:1"
       id="rect367"
       width="255.97301"
       height="7.7781744"
       x="643.11359"
       y="1180.1613" />
    <rect
       style="fill:#6b7079;fill-opacity:1;stroke:none;stroke-width:0.1;stroke-linecap:round;stroke-linejoin:round;stroke-dasharray:none;stroke-opacity:1"
       id="rect368"
       width="255.97301"
       height="7.7781744"
       x="643.11359"
       y="1305.6613" />
    <path
       fill="#696968"
       d="m 676.3,1207.36 h 14.94 a 0.71,0.71 0 0 1 0.65,0.43 l 31.25,71.34 a 0.71,0.71 0 0 1 -0.65,0.99 h -16.24 a 0.71,0.71 0 0 1 -0.65,-0.43 l -6.14,-14.02 a 0.71,0.71 0 0 0 -0.65,-0.43 h -31.59 a 0.71,0.71 0 0 0 -0.65,0.42 l -6.36,14.02 a 0.71,0.71 0 0 1 -0.65,0.42 h -15.62 a 0.71,0.71 0 0 1 -0.64,-1 l 32.35,-71.32 a 0.71,0.71 0 0 1 0.65,-0.42 z m -3.5,43.85 a 0.37,0.37 0 0 0 0.34,0.51 l 20.23,0.18 a 0.37,0.37 0 0 0 0.35,-0.51 l -9.9,-24.67 a 0.37,0.37 0 0 0 -0.69,-0.01 z"
       id="path349"
       style="fill:#6b7079;fill-opacity:1" />
    <path
       fill="#696968"
       d="m 767.53,1248.48 q -5,-6.32 -10.49,-13.8 -0.32,-0.44 -0.72,-0.61 a 0.34,0.34 0 0 0 -0.47,0.32 l 0.23,45.16 a 0.7,0.7 0 0 1 -0.69,0.7 l -14.23,0.07 a 1.2,1.2 0 0 1 -1.21,-1.2 l 0.43,-71 a 0.62,0.62 0 0 1 0.61,-0.61 l 13.01,-0.06 a 2.16,2.15 71.3 0 1 1.75,0.86 q 13.35,17.82 23.6,30.77 5,6.32 10.48,13.8 0.32,0.45 0.72,0.62 a 0.34,0.34 0 0 0 0.47,-0.32 l -0.23,-45.16 a 0.7,0.7 0 0 1 0.69,-0.7 l 14.23,-0.07 a 1.2,1.2 0 0 1 1.21,1.2 l -0.43,71 a 0.62,0.62 0 0 1 -0.61,0.61 l -13.01,0.06 a 2.16,2.15 71.3 0 1 -1.74,-0.87 q -13.35,-17.82 -23.6,-30.77 z"
       id="path350"
       style="fill:#6b7079;fill-opacity:1" />
    <path
       fill="#696968"
       d="m 831.5,1208.22 a 0.88,0.88 0 0 1 0.88,-0.88 l 32.06,-0.06 a 36.3,34.09 -0.1 0 1 36.36,34.03 v 4.54 A 36.3,34.09 -0.1 0 1 864.56,1280 l -32.06,0.06 a 0.88,0.88 0 0 1 -0.88,-0.88 z m 15.92,13.92 0.3,43.42 a 1.11,1.11 0 0 0 1.12,1.1 l 14.54,-0.1 a 21.68,20.91 89.6 0 0 20.76,-21.83 l -0.02,-2.28 a 21.68,20.91 89.6 0 0 -21.06,-21.53 l -14.54,0.1 a 1.11,1.11 0 0 0 -1.1,1.12 z"
       id="path351"
       style="fill:#6b7079;fill-opacity:1" />
  </g>
  <g
     id="g212"
     transform="translate(-16.386537,-163.42561)">
    <path
       fill="#696968"
       d="m 1047.2,1414.52 a 0.38,0.38 0 0 1 -0.55,-0.01 c -12.5,-13.41 -32.5,-18.82 -48.86,-8.65 q -14.29,8.88 -16.27,25.85 -2.43,20.93 13.74,33.49 11.09,8.6 24.8,7.1 c 9.51,-1.04 19.33,-5.16 25.96,-12.62 a 1.2,1.19 43.2 0 1 1.74,-0.05 l 13.64,13.64 a 1.12,1.11 -46.3 0 1 0.03,1.54 c -9.25,10.1 -24.06,17.39 -37.51,18.73 -21.2,2.11 -41.06,-4.45 -54.93,-21.22 q -3.85,-4.65 -7.71,-13.47 c -6,-13.71 -5.6,-30.06 -0.16,-43.77 8.73,-21.98 32.25,-36.04 55.91,-34.98 q 8.02,0.36 16.83,2.3 c 10.85,2.39 18.91,9 27.37,16.73 a 0.92,0.92 0 0 1 0.03,1.33 z"
       id="path356"
       style="fill:#6b7079;fill-opacity:1" />
    <path
       id="path357"
       d="m 719.39062,1382.1406 a 0.64,0.64 0 0 0 -0.64062,0.6387 v 108.9102 a 0.56,0.56 0 0 0 0.56055,0.5605 l 57.69922,-0.1406 16.85937,0.041 a 0.53,0.53 0 0 0 0.53125,-0.5195 l 0.17969,-19.8204 -52.14063,-0.371 a 1.05,1.05 0 0 1 -1.03906,-1.0489 v -87.791 a 0.47,0.46 0 0 0 -0.4707,-0.459 z"
       style="fill:#6b7079;fill-opacity:1" />
    <path
       fill="#696968"
       d="m 864.4,1383.08 v 87.74 a 0.83,0.83 0 0 0 0.83,0.83 h 51.16 a 0.83,0.83 0 0 1 0.83,0.83 v 19 a 0.83,0.83 0 0 1 -0.83,0.83 h -72.98 a 0.83,0.83 0 0 1 -0.83,-0.83 v -108.4 a 0.83,0.83 0 0 1 0.83,-0.83 h 20.16 a 0.83,0.83 0 0 1 0.83,0.83 z"
       id="path358"
       style="fill:#6b7079;fill-opacity:1" />
    <path
       id="path359"
       d="m 657.13086,1433.4805 c -32.93333,0.093 -86.31086,0.1355 -160.13086,0.1289 -33.64,0 -77.87,0.791 -110,0.541 -21.64,-0.1667 -43.58341,-0.1399 -65.83008,0.08 -55.23,0.56 -102.77992,0.3687 -161.91992,0.7187 -1.81333,0.013 -4.91411,0.1614 -9.30078,0.4414 l -87.099611,0.7188 a 0.56,0.57 86 0 0 -0.560547,0.6406 l 0.01172,0.051 a 0.79,0.78 86.9 0 0 0.75,0.6797 c 34.73,1.09 61.148438,1.7089 86.398438,3.6289 6.17333,0.66 12.35745,1.1363 18.55078,1.4297 23.30667,1.1133 46.36326,2.0804 69.16992,2.9004 68.38,2.46 147.86031,6.5207 203.82031,8.2207 6.86,0.2133 29.8662,1.2071 69.01954,2.9804 50.09,2.28 106.78023,4.4885 147.24023,5.4785 a 0.59,0.59 0 0 0 0.59961,-0.5898 v -27.3301 a 0.72,0.72 0 0 0 -0.71875,-0.7187 z"
       style="fill:#6b7079;fill-opacity:1" />
    <path
       id="path360"
       d="m 1117.4805,1433.5293 a 0.67,0.67 0 0 0 -0.67,0.6699 v 27.3809 a 0.63,0.64 89.1 0 0 0.6602,0.6308 c 43.51,-1.68 103.3794,-3.3208 152.3594,-5.8808 41.48,-2.18 82.6291,-3.1097 119.8691,-4.9297 7.9134,-0.3933 33.8506,-1.4829 77.8106,-3.2695 61.12,-2.4867 109.6971,-4.5073 145.7304,-6.0606 1.98,-0.087 3.7455,-0.1576 5.2989,-0.2109 l 92.8105,-4.2598 a 0.49,0.49 0 0 0 0.4707,-0.4902 v -0.2989 a 0.84,0.84 0 0 0 -0.8301,-0.8398 l -92.3906,-0.6914 c -2.3133,-0.12 -4.7629,-0.1859 -7.3496,-0.1992 -34.1267,-0.1534 -68.0701,-0.3561 -101.8301,-0.6094 -78.94,-0.59 -133.9499,-0.1703 -213.1699,-0.5703 -59.76,-0.3067 -119.3495,-0.4311 -178.7695,-0.3711 z"
       style="fill:#6b7079;fill-opacity:1" />
  </g>
  <path
     fill="#10528e"
     d="m 606.13778,787.45153 -2.01,1.55 c -8.44,-5.93 -13.9,-10.86 -20.65,-16.84 l -6.88,-8.1 5.74,-0.79 a 1.91,1.92 64.5 0 1 1.67,0.59 z"
     id="path313-9"
     style="fill:#1f4e7a;fill-opacity:1" />
  <path
     id="path314"
     d="m 576.59692,764.06072 c -6.76,0.91333 -13.54914,1.95752 -20.36914,3.13086 -28.42,4.9 -44.11031,7.61086 -47.07031,8.13086 -9.00667,1.58 -29.03031,5.86294 -60.07031,12.84961 -10.7,2.40666 -23.23295,5.54658 -37.59961,9.41992 -23.02667,6.2 -35.49683,9.58682 -37.41016,10.16015 -25.03333,7.57334 -47.25969,15.09698 -66.67969,22.57032 -21.44,8.25335 -43.81752,18.08665 -67.13086,29.49995 l -26.57812,13.75 c 0.42,0.1667 0.48588,0.4826 0.19922,0.9493 a 1.03,1.04 2.5 0 1 -0.40039,0.3691 c -12.26667,6.5 -26.26357,14.681 -41.99024,24.541 -0.13228,0.083 -0.25451,0.1358 -0.36719,0.1563 0.10853,-0.022 0.22709,-0.075 0.35352,-0.1543 15.72667,-9.86 29.72161,-18.0391 41.98828,-24.5391 a 1.03,1.04 2.5 0 0 0.40039,-0.3711 c 0.28667,-0.4666 0.22078,-0.7825 -0.19922,-0.9492 -14.94,7.5867 -29.38031,16.0239 -43.32031,25.3105 5.8e-4,0 0.001,0 0.002,0.01 l -9.11718,5.9414 c -18.97334,12.42 -35.62256,27.3727 -49.94922,44.8594 -2.76,3.36 -3.82149,5.2006 -6.52149,9.3906 a 0.68,0.68 0 0 0 0.88086,0.9785 l 3.74024,-1.8691 a 0.75,0.76 73.1 0 0 0.41015,-0.7598 v -0.1894 a 1.52,1.52 0 0 1 0.31055,-0.9512 c 1.22,-1.58 3.31,-3.3591 5,-5.3691 12.66,-15.0467 27.29177,-27.9068 43.89844,-38.5801 20.44,-13.99 38.3,-23.8703 63.75,-37.4903 8.24,-3.8466 16.45705,-7.7272 24.65039,-11.6406 7.33,-3.5 13.60945,-5.8899 22.43945,-9.6699 13.54,-5.8 32.17094,-13.2492 49.21094,-18.86914 0.65333,-0.21334 6.92078,-2.32961 18.80078,-6.34961 26.56,-8.98 55.22992,-17.53164 83.41992,-24.43164 11.96667,-2.92667 21.60659,-5.2631 28.91992,-7.00977 14.10667,-3.36667 23.52953,-5.45 28.26953,-6.25 13.96,-2.35 26.99961,-5.39922 41.59961,-7.94922 21.10667,-3.68666 42.24349,-7.19286 63.41016,-10.51953 z"
     style="fill:#1a1f24;fill-opacity:1" />
</svg>
