<?xml version="1.0" encoding="UTF-8" standalone="no"?>
<svg
   version="1.1"
   viewBox="0.00 0.00 1024.00 1024.00"
   id="svg17"
   sodipodi:docname="Logo ICO.svg"
   inkscape:version="1.4.3 (0d15f75, 2025-12-25)"
   xmlns:inkscape="http://www.inkscape.org/namespaces/inkscape"
   xmlns:sodipodi="http://sodipodi.sourceforge.net/DTD/sodipodi-0.dtd"
   xmlns="http://www.w3.org/2000/svg"
   xmlns:svg="http://www.w3.org/2000/svg">
  <defs
     id="defs17" />
  <sodipodi:namedview
     id="namedview17"
     pagecolor="#ffffff"
     bordercolor="#000000"
     borderopacity="0.25"
     inkscape:showpageshadow="2"
     inkscape:pageopacity="0.0"
     inkscape:pagecheckerboard="0"
     inkscape:deskcolor="#d1d1d1"
     showgrid="false"
     inkscape:zoom="0.78808594"
     inkscape:cx="371.15242"
     inkscape:cy="612.24287"
     inkscape:window-width="1920"
     inkscape:window-height="1009"
     inkscape:window-x="5752"
     inkscape:window-y="161"
     inkscape:window-maximized="1"
     inkscape:current-layer="g1" />
  <g
     id="g1"
     style="stroke:#000000;stroke-opacity:1">
    <path
       fill="#133692"
       d="m 169.53379,512.12 c 14.68857,79.29466 643.56288,133.93034 684.28,-0.5 0.32838,0.2652 0.82277,0.0951 0.93,-0.32 0.06,-0.25333 -8.68895,34.99912 0.4,-0.83 26.20667,-101.35333 38.71333,-204.54 37.52,-309.56 -0.002,-0.4051 -0.30253,-0.7444 -0.7,-0.79 -16.19333,-1.95333 -32.3,-4.48667 -48.32,-7.6 -37.67333,-7.32 -75.04333,-16.46333 -112.11,-27.43 -74.44,-22.02667 -147.31333,-48.55 -218.62,-79.57 -0.56143,-0.24256 -1.1952,-0.24256 -1.75,0 -41.1,17.85 -83.17,34.33 -126.45,49.76 -26.17333,9.32 -54.90667,18.66667 -86.2,28.04 -54.19,16.23 -109.96,29.61 -166.17,36.83 -0.46271,0.0551 -0.81324,0.44407 -0.82,0.91 -1.48,104.68 11.77,209.67 38.01,311.06 z"
       id="path12"
       style="fill:#5a8ab8;fill-opacity:1;stroke:#1f4e7a;stroke-width:33;stroke-dasharray:none;stroke-opacity:1"
       sodipodi:nodetypes="ccccccccccccccc" />
    <path
       fill="#133692"
       d="M 841.75231,561.58423 C 822.81231,613.0709 783.60667,694.73667 753.32,739.33 c -20.25333,29.81333 -43.56,57.84333 -69.92,84.09 -31.73333,31.60667 -66.96,58.95 -105.68,82.03 -20.64,12.3 -42.19,23.38 -64.65,33.24 -0.60663,0.26803 -1.29839,0.27165 -1.91,0.01 C 475.19333,923 441.38333,903.95 409.73,881.55 351.22,840.14 301.28,786.93 262.33,726.47 235.77,685.24333 194.90987,593.24858 177.81654,546.92191 L 506.65441,314.93867 c 0.15884,-30.57697 4.18785,-19.15689 4.34669,-19.03345 z"
       id="path14"
       style="fill:#f5f2ec;fill-opacity:1;stroke:#1f4e7a;stroke-width:33;stroke-dasharray:none;stroke-opacity:1"
       sodipodi:nodetypes="cccccccccccc" />
    <rect
       fill="#c1c5c8"
       x="400.75"
       y="504.92999"
       width="78.580002"
       height="78.580002"
       rx="0.66000003"
       id="rect14"
       style="fill:#1f4e7a;fill-opacity:1;stroke:none;stroke-opacity:1" />
    <rect
       fill="#c1c5c8"
       x="544.73999"
       y="504.94"
       width="78.559998"
       height="78.559998"
       rx="0.38999999"
       id="rect15"
       style="fill:#1f4e7a;fill-opacity:1;stroke:none;stroke-opacity:1" />
    <rect
       fill="#c1c5c8"
       x="400.67999"
       y="649.42999"
       width="78.699997"
       height="78.699997"
       rx="0.41"
       id="rect16"
       style="fill:#1f4e7a;fill-opacity:1;stroke:#000000;stroke-opacity:1" />
    <rect
       fill="#c1c5c8"
       x="544.70001"
       y="649.45001"
       width="78.660004"
       height="78.660004"
       rx="0.41999999"
       id="rect17"
       style="fill:#1f4e7a;fill-opacity:1;stroke:#000000;stroke-opacity:1" />
    <path
       fill="#c1c5c8"
       d="m 169.44755,512.12 -62.82,48.86 a 0.93,0.94 53.3 0 0 -0.19,1.27 l 47.06,65.88 a 0.82,0.81 53.3 0 0 1.15,0.17 q 20.99,-16 41.27,-32.93 0.58,-0.49 0.99,-0.16 l 314.89,-247.28 a 0.44,0.44 0 0 1 0.54,0 l 314.88,247.21 42.5,33.46 a 0.44,0.44 0 0 0 0.63,-0.09 l 47.27,-66.15 a 0.95,0.97 36.4 0 0 -0.19,-1.32 q -19.81,-15.48 -56.22,-43.69 -3.07,-2.37 -5.2,-4.3 -1.05,-0.95 -0.95,-2.58 -0.31,0.45 -0.4,0.83 a 0.58,0.59 26.1 0 1 -0.93,0.32 l -341.17,-265.97 a 0.73,0.73 0 0 0 -0.9,0 l -168.52,131.38 a 0.42,0.42 0 0 1 -0.68,-0.33 v -75.34 a 0.53,0.53 0 0 0 -0.53,-0.53 h -78.42 a 0.17,0.17 0 0 0 -0.17,0.17 v 137.34 a 1.97,1.97 0 0 1 -0.77,1.56 z"
       id="path13"
       style="fill:#1f4e7a;fill-opacity:1;stroke:none;stroke-opacity:1" />
  </g>
</svg>
