<?xml version="1.0" encoding="UTF-8" standalone="no"?>
<svg
   version="1.1"
   viewBox="0.00 0.00 1024.00 1024.00"
   id="svg17"
   sodipodi:docname="Logo ICO.svg"
   inkscape:version="1.4.3 (0d15f75, 2025-12-25)"
   xmlns:inkscape="http://www.inkscape.org/namespaces/inkscape"
   xmlns:sodipodi="http://sodipodi.sourceforge.net/DTD/sodipodi-0.dtd"
   xmlns="http://www.w3.org/2000/svg"
   xmlns:svg="http://www.w3.org/2000/svg">
  <defs
     id="defs17" />
  <sodipodi:namedview
     id="namedview17"
     pagecolor="#ffffff"
     bordercolor="#000000"
     borderopacity="0.25"
     inkscape:showpageshadow="2"
     inkscape:pageopacity="0.0"
     inkscape:pagecheckerboard="0"
     inkscape:deskcolor="#d1d1d1"
     showgrid="false"
     inkscape:zoom="0.78808594"
     inkscape:cx="512"
     inkscape:cy="512"
     inkscape:window-width="1920"
     inkscape:window-height="1009"
     inkscape:window-x="5752"
     inkscape:window-y="161"
     inkscape:window-maximized="1"
     inkscape:current-layer="svg17" />
  <path
     fill="#133692"
     d="m 169.53379,512.12 93.12,-72.22 a 1.97,1.97 0 0 0 0.77,-1.56 V 301 a 0.17,0.17 0 0 1 0.17,-0.17 h 78.42 a 0.53,0.53 0 0 1 0.53,0.53 v 75.34 a 0.42,0.42 0 0 0 0.68,0.33 l 168.52,-131.38 a 0.73,0.73 0 0 1 0.9,0 l 341.17,265.97 a 0.58,0.59 26.1 0 0 0.93,-0.32 q 0.09,-0.38 0.4,-0.83 39.31,-152.03 37.52,-309.56 a 0.79,0.8 3.2 0 0 -0.7,-0.79 q -24.29,-2.93 -48.32,-7.6 -56.51,-10.98 -112.11,-27.43 -111.66,-33.04 -218.62,-79.57 a 2.21,2.18 44.6 0 0 -1.75,0 c -41.1,17.85 -83.17,34.33 -126.45,49.76 q -39.26,13.98 -86.2,28.04 c -54.19,16.23 -109.96,29.61 -166.17,36.83 a 0.93,0.93 0 0 0 -0.82,0.91 c -1.48,104.68 11.77,209.67 38.01,311.06 z"
     id="path12"
     style="fill:#1f4e7a;fill-opacity:1" />
  <path
     fill="#c1c5c8"
     d="m 169.44755,512.12 -62.82,48.86 a 0.93,0.94 53.3 0 0 -0.19,1.27 l 47.06,65.88 a 0.82,0.81 53.3 0 0 1.15,0.17 q 20.99,-16 41.27,-32.93 0.58,-0.49 0.99,-0.16 l 314.89,-247.28 a 0.44,0.44 0 0 1 0.54,0 l 314.88,247.21 42.5,33.46 a 0.44,0.44 0 0 0 0.63,-0.09 l 47.27,-66.15 a 0.95,0.97 36.4 0 0 -0.19,-1.32 q -19.81,-15.48 -56.22,-43.69 -3.07,-2.37 -5.2,-4.3 -1.05,-0.95 -0.95,-2.58 -0.31,0.45 -0.4,0.83 a 0.58,0.59 26.1 0 1 -0.93,0.32 l -341.17,-265.97 a 0.73,0.73 0 0 0 -0.9,0 l -168.52,131.38 a 0.42,0.42 0 0 1 -0.68,-0.33 v -75.34 a 0.53,0.53 0 0 0 -0.53,-0.53 h -78.42 a 0.17,0.17 0 0 0 -0.17,0.17 v 137.34 a 1.97,1.97 0 0 1 -0.77,1.56 z"
     id="path13"
     style="fill:#5a8ab8;fill-opacity:1;stroke:none" />
  <path
     fill="#133692"
     d="   M 827.16 595.21   Q 798.75 672.44 753.32 739.33   Q 722.94 784.05 683.40 823.42   Q 635.80 870.83 577.72 905.45   Q 546.76 923.90 513.07 938.69   A 2.40 2.39 44.5 0 1 511.16 938.70   Q 457.21 915.15 409.73 881.55   C 351.22 840.14 301.28 786.93 262.33 726.47   Q 222.49 664.63 196.85 595.14   L 511.73 347.93   A 0.44 0.44 0.0 0 1 512.27 347.93   L 827.16 595.21   Z   M 499.33 525.59   A 0.66 0.66 0.0 0 0 498.67 524.93   L 421.41 524.93   A 0.66 0.66 0.0 0 0 420.75 525.59   L 420.75 602.85   A 0.66 0.66 0.0 0 0 421.41 603.51   L 498.67 603.51   A 0.66 0.66 0.0 0 0 499.33 602.85   L 499.33 525.59   Z   M 603.30 525.33   A 0.39 0.39 0.0 0 0 602.91 524.94   L 525.13 524.94   A 0.39 0.39 0.0 0 0 524.74 525.33   L 524.74 603.11   A 0.39 0.39 0.0 0 0 525.13 603.50   L 602.91 603.50   A 0.39 0.39 0.0 0 0 603.30 603.11   L 603.30 525.33   Z   M 499.38 629.84   A 0.41 0.41 0.0 0 0 498.97 629.43   L 421.09 629.43   A 0.41 0.41 0.0 0 0 420.68 629.84   L 420.68 707.72   A 0.41 0.41 0.0 0 0 421.09 708.13   L 498.97 708.13   A 0.41 0.41 0.0 0 0 499.38 707.72   L 499.38 629.84   Z   M 603.36 629.87   A 0.42 0.42 0.0 0 0 602.94 629.45   L 525.12 629.45   A 0.42 0.42 0.0 0 0 524.70 629.87   L 524.70 707.69   A 0.42 0.42 0.0 0 0 525.12 708.11   L 602.94 708.11   A 0.42 0.42 0.0 0 0 603.36 707.69   L 603.36 629.87   Z"
     id="path14"
     style="fill:#1f4e7a;fill-opacity:1" />
  <rect
     fill="#c1c5c8"
     x="420.75"
     y="524.93"
     width="78.58"
     height="78.58"
     rx="0.66"
     id="rect14"
     style="fill:#5a8ab8;fill-opacity:1" />
  <rect
     fill="#c1c5c8"
     x="524.74"
     y="524.94"
     width="78.56"
     height="78.56"
     rx="0.39"
     id="rect15"
     style="fill:#5a8ab8;fill-opacity:1" />
  <rect
     fill="#c1c5c8"
     x="420.68"
     y="629.43"
     width="78.70"
     height="78.70"
     rx="0.41"
     id="rect16"
     style="fill:#5a8ab8;fill-opacity:1" />
  <rect
     fill="#c1c5c8"
     x="524.70"
     y="629.45"
     width="78.66"
     height="78.66"
     rx="0.42"
     id="rect17"
     style="fill:#5a8ab8;fill-opacity:1" />
</svg>
