<svg xmlns="http://www.w3.org/2000/svg" viewBox="0 0 576 520" role="img">
  <title>Reese Roofing</title>
  <path d="M498.0 511.1L77.0 511.1L76.4 260.0L75.0 258.8L72.6 260.0L38.0 290.2L11.5 261.0L8.6 255.0L287.0 7.8L403.0 109.4L404.5 108.0L404.5 66.0L406.0 63.8L475.0 63.8L476.5 67.0L475.8 174.0L566.9 256.0L537.0 290.2L502.4 260.0L498.7 259.0L498.0 511.1ZM451.1 464.0L451.2 215.0L290.0 70.5L287.0 69.7L123.8 215.0L123.9 464.0L451.1 464.0ZM398.0 428.1L341.0 428.2L297.3 365.0L294.0 363.5L250.0 364.0L249.5 426.0L248.0 428.2L198.0 428.5L195.0 427.3L195.0 205.9L312.0 205.5L321.0 206.5L347.0 213.7L359.0 219.7L374.5 232.0L387.2 250.0L392.3 264.0L394.5 276.0L393.5 299.0L389.3 314.0L377.0 334.4L362.4 347.0L349.1 355.0L398.2 426.0L398.0 428.1ZM306.5 320.0L315.0 318.3L328.4 311.0L334.3 304.0L337.3 298.0L339.5 289.0L339.5 279.0L336.3 268.0L332.0 261.6L322.0 253.7L306.0 248.5L250.0 248.9L249.9 320.0L306.5 320.0Z" fill="#1f4e7a" fill-rule="evenodd"/>
</svg>
