<svg xmlns="http://www.w3.org/2000/svg" viewBox="0 0 518 536" role="img">
  <title>Reese Roofing — Commercial & Residential</title>
  <path d="M378.0 57.2L335.5 57.0L378.0 57.2ZM374.0 116.5L374.0 70.1L374.0 116.5ZM264.0 248.5L264.0 181.5L264.0 248.5ZM113.0 192.2L67.4 192.0L113.0 192.2ZM449.0 192.2L400.5 192.0L449.0 192.2ZM201.0 221.5L201.0 195.5L201.0 221.5ZM233.0 218.6L233.0 196.4L233.0 218.6ZM349.0 222.5L349.0 200.1L349.0 222.5ZM61.0 286.2L13.5 286.0L61.0 286.2ZM201.0 286.2L123.5 286.0L201.0 286.2ZM302.0 286.2L224.5 286.0L302.0 286.2ZM501.0 286.2L423.5 286.0L501.0 286.2ZM201.0 304.2L148.5 304.0L201.0 304.2ZM302.0 304.2L248.5 304.0L302.0 304.2ZM501.0 304.2L447.5 304.0L501.0 304.2ZM195.0 341.2L148.4 341.0L195.0 341.2ZM295.0 341.2L248.5 341.0L295.0 341.2ZM494.0 341.2L447.5 341.0L494.0 341.2ZM203.0 362.2L148.5 362.0L203.0 362.2ZM304.0 362.2L248.5 362.0L304.0 362.2ZM503.0 362.2L447.5 362.0L503.0 362.2ZM35.0 380.2L13.5 380.0L35.0 380.2ZM104.0 380.2L80.4 380.0L104.0 380.2ZM203.0 380.2L123.5 380.0L203.0 380.2ZM303.0 380.2L224.5 380.0L303.0 380.2ZM503.0 380.2L424.5 380.0L503.0 380.2ZM311.0 410.2L276.5 410.0L311.0 410.2ZM306.0 438.2L281.4 438.0L306.0 438.2ZM502.0 484.3L15.0 484.5L12.7 484.0L12.5 482.0L12.7 480.0L15.0 479.5L502.0 479.5L504.3 480.0L504.5 482.0L504.0 484.0L502.0 484.3ZM27.0 523.3L22.0 523.5L19.0 522.3L15.7 520.0L12.7 515.0L12.7 511.0L14.9 506.0L19.0 502.7L28.0 502.7L31.3 505.0L30.0 507.3L26.0 505.7L22.0 505.7L19.0 507.6L16.9 512.0L19.0 518.3L24.0 520.1L30.1 518.0L30.9 520.0L27.0 523.3ZM49.0 523.3L41.0 522.3L36.7 518.0L35.7 515.0L36.7 508.0L39.0 505.0L43.0 502.7L51.0 502.7L54.5 505.0L57.3 509.0L57.1 517.0L55.0 520.3L49.0 523.3ZM86.0 522.3L82.7 522.0L82.5 513.0L81.0 511.8L75.0 520.3L72.5 519.0L68.3 512.0L67.0 511.8L67.1 521.0L66.0 522.3L63.0 522.3L62.7 503.0L66.7 504.0L75.0 515.0L82.7 503.0L86.0 502.7L86.0 522.3ZM115.0 523.1L113.0 523.0L111.7 519.0L112.0 511.8L110.7 512.0L107.3 518.0L104.0 521.1L102.0 517.0L98.3 512.0L97.0 511.8L96.4 522.0L96.0 523.0L93.0 523.0L92.7 503.0L97.0 503.6L103.7 515.0L105.0 515.2L111.7 503.0L116.0 502.7L116.5 521.0L115.0 523.1ZM138.0 522.3L122.7 522.0L123.0 502.7L137.9 503.0L137.9 505.0L127.6 506.0L126.9 507.0L128.9 511.0L135.0 510.5L137.3 512.0L135.0 514.5L127.0 514.7L126.5 517.0L127.0 519.3L138.0 519.7L138.0 522.3ZM160.0 523.3L157.0 522.5L152.0 516.9L148.7 518.0L148.0 522.3L145.0 523.1L144.0 522.4L144.0 502.7L156.0 502.7L160.0 505.6L161.3 508.0L161.3 512.0L157.7 517.0L160.3 521.0L160.9 523.0L160.0 523.3ZM180.0 523.3L175.0 523.5L171.0 522.3L167.7 519.0L165.7 515.0L166.7 508.0L173.0 502.7L181.0 502.7L184.3 505.0L184.0 506.4L182.0 507.3L178.0 504.9L172.0 507.7L170.7 510.0L170.7 515.0L174.0 520.3L183.0 517.9L184.5 519.0L185.1 520.0L184.2 521.0L180.0 523.3ZM194.0 522.3L190.0 522.3L189.5 521.0L189.5 504.0L191.0 502.5L194.0 502.7L194.5 504.0L194.0 522.3ZM220.0 522.3L217.0 522.3L214.0 518.7L206.0 518.5L204.0 519.6L203.0 522.3L199.0 522.9L207.0 503.0L212.0 503.0L217.0 515.0L218.3 516.0L220.0 522.3ZM239.0 522.3L225.7 522.0L224.5 518.0L224.5 507.0L226.1 503.0L229.0 503.0L229.4 504.0L229.7 519.0L239.0 519.7L239.0 522.3ZM263.0 523.3L255.0 522.3L252.5 518.0L252.7 516.0L256.3 512.0L254.7 506.0L256.0 503.7L259.0 502.6L264.0 502.7L266.3 504.0L267.1 507.0L266.0 509.4L263.7 511.0L264.7 515.0L268.0 515.3L271.0 514.1L271.2 515.0L269.0 517.0L271.1 520.0L270.0 521.5L269.0 522.3L266.0 521.7L263.0 523.3ZM303.0 523.3L299.0 522.3L296.3 518.0L294.0 516.9L290.7 518.0L290.0 522.3L287.0 523.0L287.0 503.1L298.0 502.5L302.0 505.0L303.3 508.0L303.3 513.0L302.0 515.3L300.0 516.0L303.9 523.0L303.0 523.3ZM325.0 522.3L309.7 522.0L310.0 503.0L324.3 503.0L324.0 505.3L315.0 505.7L313.5 508.0L314.0 510.3L323.0 510.7L323.3 514.0L314.0 514.7L312.9 517.0L315.0 519.5L325.0 519.8L325.0 522.3ZM341.0 523.3L333.0 523.3L330.7 522.0L330.0 520.0L332.0 518.5L341.0 520.0L342.3 518.0L341.4 516.0L338.0 513.9L335.0 514.3L330.7 512.0L329.5 509.0L330.7 505.0L334.0 502.7L343.0 502.7L344.1 505.0L343.0 506.3L336.0 505.7L333.9 508.0L336.0 510.3L342.0 511.7L345.3 514.0L346.3 518.0L344.5 521.0L341.0 523.3ZM376.0 522.3L361.7 522.0L362.0 502.7L369.0 502.5L372.0 503.5L375.0 502.7L381.3 508.0L382.5 511.0L382.3 516.0L379.5 520.0L376.0 522.3ZM403.0 522.3L387.7 522.0L388.0 502.7L402.3 503.0L402.0 505.3L393.0 505.7L391.7 507.0L392.0 510.3L400.0 510.6L401.3 513.0L400.0 514.5L392.0 514.7L391.5 518.0L393.0 519.5L403.0 519.7L403.0 522.3ZM425.0 523.1L423.0 522.3L422.3 520.0L413.0 511.0L413.1 522.0L412.0 523.1L409.0 523.0L409.0 502.7L412.4 503.0L422.0 514.3L423.5 513.0L423.7 503.0L427.3 503.0L427.4 522.0L427.0 523.0L425.0 523.1ZM441.0 522.5L439.0 523.0L438.6 522.0L438.3 507.0L437.0 505.7L432.0 505.3L432.0 502.7L448.3 503.0L448.0 505.3L442.0 506.1L442.5 520.0L441.0 522.5ZM458.0 522.3L455.0 522.3L454.5 521.0L453.5 504.0L455.0 502.5L457.0 502.7L458.5 505.0L458.0 522.3ZM466.0 523.3L463.0 522.9L462.7 522.0L470.7 503.0L476.0 502.7L484.4 522.0L481.0 523.0L480.0 520.0L478.0 518.5L471.0 517.9L468.7 519.0L466.0 523.3ZM504.0 522.3L491.0 522.5L490.0 521.6L490.0 503.0L493.3 503.0L493.7 519.0L504.0 519.7L504.0 522.3ZM355.0 522.3L351.0 522.3L350.5 521.0L351.5 515.0L351.0 503.0L355.0 503.0L355.4 504.0L355.0 522.3ZM262.4 509.0L263.3 506.0L262.0 504.7L260.0 504.7L258.7 506.0L258.7 508.0L260.0 509.3L262.4 509.0ZM45.2 520.0L51.0 518.3L53.5 514.0L53.0 509.6L50.0 506.6L47.0 505.5L42.6 507.0L39.7 512.0L40.6 517.0L45.2 520.0ZM155.4 513.0L157.3 510.0L156.5 508.0L154.0 505.7L149.0 505.7L148.7 513.0L155.4 513.0ZM297.4 513.0L299.3 511.0L299.0 507.6L296.0 505.7L291.6 506.0L290.5 508.0L290.7 513.0L297.4 513.0ZM373.5 519.0L377.3 516.0L378.3 512.0L377.3 509.0L371.0 505.7L367.0 505.7L366.7 519.0L373.5 519.0ZM213.0 515.0L210.3 508.0L209.0 507.8L206.7 515.0L213.0 515.0ZM477.2 515.0L474.3 508.0L473.0 507.8L470.7 515.0L477.2 515.0ZM262.5 520.0L264.3 519.0L264.0 517.6L261.0 514.7L258.0 514.7L256.7 519.0L260.0 520.3L262.5 520.0Z" fill="#6b7079" fill-rule="evenodd"/>
  <path d="M404.0 260.1L114.0 260.5L112.5 259.0L112.9 250.0L121.0 249.5L122.5 248.0L122.0 189.0L115.0 191.5L69.0 191.0L85.0 174.5L249.0 20.5L259.0 12.8L339.0 87.4L340.5 86.0L340.5 70.0L334.9 68.0L335.0 57.9L379.1 58.0L379.1 68.0L375.0 68.8L373.5 71.0L373.8 120.0L448.4 190.0L447.0 191.5L399.0 191.2L378.0 171.5L376.0 171.0L375.5 248.0L377.0 249.5L404.0 249.9L404.0 260.1ZM166.1 249.0L166.5 165.0L169.0 161.7L259.0 135.5L356.0 162.3L369.0 165.4L370.2 164.0L262.0 61.5L258.0 59.8L190.0 123.5L186.7 125.0L184.0 129.1L181.0 130.7L153.8 158.0L153.5 248.0L155.0 249.5L166.1 249.0ZM322.0 139.9L310.6 135.0L259.0 93.8L206.0 135.3L200.0 138.3L195.0 139.9L194.8 139.0L250.0 86.5L259.0 79.8L314.0 130.5L322.0 139.9ZM180.5 189.0L250.5 170.0L252.5 168.0L252.0 149.0L178.0 169.9L177.5 188.0L180.5 189.0ZM364.1 249.0L364.0 175.9L267.0 148.7L263.9 149.0L263.5 167.0L265.0 169.2L355.0 191.8L357.2 194.0L357.5 197.0L355.6 231.0L346.0 231.5L323.0 229.5L316.5 227.0L316.0 191.9L272.0 181.5L264.0 180.9L264.0 249.1L275.0 249.5L276.5 248.0L276.5 198.0L278.0 196.3L303.0 200.5L305.2 202.0L306.0 249.1L364.1 249.0ZM252.1 249.0L252.0 180.8L243.0 182.7L240.5 185.0L240.5 225.0L239.3 228.0L179.0 231.5L177.5 233.0L177.5 248.0L179.0 249.5L252.1 249.0ZM217.5 222.0L231.0 221.5L233.2 220.0L233.0 186.0L208.9 192.0L208.5 221.0L210.0 222.5L217.5 222.0ZM348.3 224.0L349.5 221.0L349.0 199.7L324.0 194.0L323.9 222.0L348.3 224.0ZM187.5 224.0L199.0 223.5L201.2 222.0L201.0 194.9L197.0 194.7L177.9 200.0L177.9 224.0L187.5 224.0ZM285.6 228.0L285.1 222.0L282.0 221.9L281.9 228.0L285.6 228.0ZM371.0 381.3L353.0 381.5L341.0 379.5L323.0 373.2L318.0 370.0L326.0 354.1L340.0 360.3L354.0 363.5L371.0 363.3L378.4 360.0L381.2 355.0L380.0 350.7L375.0 346.7L339.0 337.3L329.0 332.3L323.8 327.0L320.7 321.0L319.5 314.0L321.8 304.0L330.6 293.0L345.0 286.7L358.0 284.5L379.0 285.5L388.0 287.7L398.0 291.8L400.2 294.0L393.0 309.2L370.0 302.5L352.0 303.7L344.8 309.0L344.8 316.0L347.0 318.3L357.0 322.3L386.0 328.7L397.4 335.0L403.3 342.0L405.5 349.0L405.5 354.0L403.2 363.0L401.0 366.4L389.0 376.3L371.0 381.3ZM103.0 379.3L79.0 379.2L60.0 353.9L42.0 352.8L38.0 353.1L36.5 355.0L36.0 379.1L12.9 379.0L13.0 286.9L69.0 286.5L86.0 291.8L96.0 299.5L99.2 304.0L102.5 314.0L101.3 331.0L95.5 340.0L83.4 350.0L103.3 377.0L103.0 379.3ZM204.0 379.1L122.9 379.0L123.0 286.9L202.1 287.0L202.5 302.0L201.0 303.5L150.0 303.5L147.0 304.7L147.0 323.1L195.0 323.5L196.5 327.0L195.0 340.3L148.0 340.8L146.5 343.0L146.5 359.0L147.0 361.3L149.0 362.5L203.0 362.5L204.5 364.0L204.0 379.1ZM305.0 379.1L223.9 379.0L224.0 286.9L303.1 287.0L303.5 302.0L302.0 303.5L247.9 304.0L248.0 323.1L295.0 323.5L296.5 325.0L296.5 338.0L295.0 340.5L248.0 340.9L247.5 360.0L249.0 362.5L304.0 362.5L305.5 364.0L305.0 379.1ZM504.0 379.1L422.9 379.0L423.0 286.9L502.1 287.0L502.5 302.0L501.0 303.5L446.9 304.0L447.0 323.1L494.0 323.5L495.5 325.0L495.5 338.0L494.0 340.5L447.0 340.9L446.5 360.0L448.0 362.5L503.0 362.5L504.5 364.0L504.0 379.1ZM63.5 335.0L70.0 333.2L77.3 326.0L78.5 317.0L75.5 310.0L65.0 304.5L37.0 304.9L36.9 335.0L63.5 335.0ZM131.0 461.3L113.0 461.5L103.0 458.2L96.0 453.5L89.0 446.4L86.7 442.0L84.5 434.0L85.7 420.0L89.7 412.0L96.0 405.5L107.0 399.7L117.0 397.5L126.0 397.5L139.0 400.7L148.0 406.5L153.0 411.7L157.3 419.0L158.5 436.0L153.3 448.0L144.0 456.1L131.0 461.3ZM216.0 461.3L199.0 461.5L185.0 456.3L176.0 448.4L170.7 438.0L170.5 423.0L174.7 413.0L183.6 404.0L192.0 399.7L203.0 397.5L211.0 397.5L224.0 400.7L230.0 403.7L237.5 410.0L243.3 420.0L244.5 435.0L241.3 444.0L237.0 450.4L231.0 455.3L226.0 458.3L216.0 461.3ZM486.0 461.3L467.0 461.5L459.0 459.3L446.0 450.3L441.7 444.0L438.5 434.0L439.7 420.0L445.5 410.0L456.0 401.8L465.0 398.5L481.0 397.5L494.0 400.7L503.4 407.0L503.0 409.5L495.0 416.2L484.0 410.5L475.0 409.5L468.0 410.7L460.0 415.5L454.7 424.0L454.5 434.0L456.7 440.0L463.0 446.3L472.0 449.5L482.0 449.5L489.3 447.0L490.0 429.9L504.1 430.0L504.2 453.0L494.0 459.3L486.0 461.3ZM72.0 460.3L57.0 460.2L44.5 444.0L41.0 442.5L28.9 443.0L28.0 460.1L12.9 460.0L13.0 398.9L49.0 398.5L58.0 400.7L67.5 407.0L71.3 412.0L72.3 426.0L67.5 435.0L59.6 441.0L71.3 457.0L72.0 460.3ZM275.0 460.1L261.0 460.5L259.5 459.0L259.9 399.0L311.0 398.8L312.4 406.0L311.0 409.4L275.9 410.0L276.0 426.1L306.0 426.5L307.5 428.0L307.5 435.0L306.0 437.5L276.0 437.9L275.0 460.1ZM341.0 460.1L327.0 460.5L325.5 459.0L325.5 401.0L327.0 398.5L340.0 398.5L341.5 400.0L341.0 460.1ZM423.0 460.1L409.7 460.0L377.0 424.0L375.5 426.0L375.1 460.0L361.0 460.1L360.9 399.0L373.3 399.0L407.0 435.2L408.5 433.0L408.9 399.0L423.0 398.9L423.0 460.1ZM48.5 431.0L53.4 429.0L56.2 425.0L56.5 418.0L54.5 414.0L48.0 410.5L29.0 409.9L28.9 431.0L48.5 431.0ZM127.5 449.0L133.0 447.3L140.3 441.0L143.5 432.0L142.3 423.0L137.5 416.0L130.0 410.7L119.0 409.5L111.0 411.8L101.7 421.0L99.8 429.0L101.7 438.0L108.0 445.5L113.0 448.3L117.0 449.5L127.5 449.0ZM213.5 449.0L220.0 446.5L227.3 438.0L228.5 427.0L227.2 421.0L223.0 415.5L217.0 411.7L210.0 409.5L199.0 410.7L192.0 414.2L186.7 422.0L185.5 429.0L186.7 437.0L191.0 443.6L196.0 447.2L203.0 449.5L213.5 449.0Z" fill="#1f4e7a" fill-rule="evenodd"/>
</svg>
