<?xml version="1.0" encoding="UTF-8" standalone="no"?>
<svg
   version="1.1"
   viewBox="0 0 1327.8372 957.35223"
   id="svg363"
   sodipodi:docname="Logo Upscaled x2 Simplified.svg"
   inkscape:version="1.4.3 (0d15f75, 2025-12-25)"
   width="1327.8372"
   height="957.35223"
   xmlns:inkscape="http://www.inkscape.org/namespaces/inkscape"
   xmlns:sodipodi="http://sodipodi.sourceforge.net/DTD/sodipodi-0.dtd"
   xmlns="http://www.w3.org/2000/svg"
   xmlns:svg="http://www.w3.org/2000/svg">
  <defs
     id="defs363" />
  <sodipodi:namedview
     id="namedview363"
     pagecolor="#ffffff"
     bordercolor="#000000"
     borderopacity="0.25"
     inkscape:showpageshadow="2"
     inkscape:pageopacity="0.0"
     inkscape:pagecheckerboard="0"
     inkscape:deskcolor="#d1d1d1"
     inkscape:zoom="0.25"
     inkscape:cx="-264"
     inkscape:cy="626"
     inkscape:window-width="1920"
     inkscape:window-height="1009"
     inkscape:window-x="5752"
     inkscape:window-y="161"
     inkscape:window-maximized="1"
     inkscape:current-layer="g1"
     showgrid="false" />
  <g
     id="g1"
     transform="translate(-175.16691,-164.29597)">
    <g
       id="g2"
       transform="translate(-53.222483,0.87035901)">
      <rect
         style="fill:#2a3138;fill-opacity:1;stroke:none;stroke-width:0.101901;stroke-linecap:round;stroke-linejoin:round;stroke-dasharray:none;stroke-opacity:1"
         id="rect366"
         width="56.928974"
         height="54.006023"
         x="825.02563"
         y="754.63055"
         rx="1.0090507" />
      <rect
         style="fill:#2a3138;fill-opacity:1;stroke:none;stroke-width:0.101901;stroke-linecap:round;stroke-linejoin:round;stroke-dasharray:none;stroke-opacity:1"
         id="rect365"
         width="56.928974"
         height="54.006023"
         x="891.83813"
         y="754.63055"
         rx="1.0090507" />
      <rect
         style="fill:#2a3138;fill-opacity:1;stroke:none;stroke-width:0.101901;stroke-linecap:round;stroke-linejoin:round;stroke-dasharray:none;stroke-opacity:1"
         id="rect364"
         width="56.928974"
         height="54.006023"
         x="891.83813"
         y="691.8573"
         rx="1.0090507" />
      <rect
         style="fill:#2a3138;fill-opacity:1;stroke:none;stroke-width:0.101901;stroke-linecap:round;stroke-linejoin:round;stroke-dasharray:none;stroke-opacity:1"
         id="rect363"
         width="56.928974"
         height="54.006023"
         x="825.02563"
         y="691.8573"
         rx="1.0090507" />
      <path
         id="path252"
         d="m 890.90039,163.42578 a 1.39,1.37 45.4 0 0 -0.68945,0.17383 c -12.44,6.79333 -21.45435,11.74799 -27.04102,14.86133 -26.36,14.67 -53.97,27.6782 -80.75,39.1582 -22.37333,9.59333 -37.22411,15.83714 -44.55078,18.73047 -25.46667,10.05333 -51.67867,19.49674 -78.63867,28.33008 -18.41,6.02 -38.59024,11.84125 -57.99024,17.53125 -35.14666,9.22666 -64.14356,16.06929 -86.99023,20.52929 -27.68,5.4 -55.51023,9.54612 -83.49023,12.43946 a 0.59,0.6 87.2 0 0 -0.5293,0.58008 c -0.11333,12.03333 -0.15443,33.39651 -0.12109,64.08984 0.0333,23.12667 0.53643,43.04953 1.50976,59.76953 1.34,22.84667 2.88419,42.72729 4.63086,59.64063 1.34667,13.02 3.65635,29.37388 6.92969,49.06054 1.31333,7.92 3.14047,17.28318 5.48047,28.08985 2.01333,9.26 3.98039,18.59953 5.90039,28.01953 0.79333,2.79333 1.54643,5.66776 2.25976,8.62109 2.63,10.94 6.31977,22.33016 8.50977,31.16016 1.97333,7.98 4.1462,15.11992 6.51953,21.41992 0.53333,1.41333 3.08372,9.10984 7.65039,23.08984 2.51333,7.68667 5.79937,16.50875 9.85938,26.46875 a 1.07,1.07 0 0 0 1.58007,0.49024 l 15.59961,-10.23047 A 1.08,1.09 66.5 0 0 507,704.28906 c -0.31333,-1.29333 -0.76914,-2.77898 -1.36914,-4.45898 -5.64,-15.72667 -10.57102,-30.51581 -14.79102,-44.36914 -4.10666,-13.46 -8.1489,-26.93016 -12.1289,-40.41016 -2.34,-10.38667 -4.78847,-20.74055 -7.3418,-31.06055 -1.74,-7.02666 -3.43341,-14.87744 -5.08008,-23.55078 C 457.0624,511.77945 451.95737,463.3 450.9707,415 c -0.54,-26.66667 -0.65007,-53.55659 -0.33008,-80.66992 a 1,0.98 85.9 0 1 0.83008,-0.9707 c 13.78,-2.18001 27.25946,-4.1893 40.43946,-6.0293 10.57333,-1.47334 24.59388,-4.11016 42.06054,-7.91016 27.3,-5.93333 54.39263,-12.65969 81.2793,-20.17969 19.34667,-5.47333 32.56682,-9.42294 39.66016,-11.84961 10.79,-3.69999 22.84078,-7.42101 33.05078,-11.04101 29.52,-10.49333 58.04479,-21.39255 85.57812,-32.69922 13.76,-5.65333 26.26,-11.18008 37.5,-16.58008 21.33334,-10.24 33.64188,-16.19776 36.92188,-17.87109 9.12666,-4.68 22.84177,-11.96914 41.14844,-21.86914 1.14666,-0.62 2.36992,-0.58706 3.66992,0.0996 3.95333,2.08666 6.80721,3.64325 8.56054,4.66992 5.51,3.21 12.30016,5.71047 17.66016,8.98047 5.57,3.4 12.10008,6.02086 17.08008,8.88086 3.47,1.99 6.65945,2.96867 10.93945,5.13867 3.09333,1.57333 8.84643,4.42411 17.25977,8.55078 5.64,2.76667 11.47023,5.43024 17.49023,7.99023 8.66,3.67334 17.24333,7.52527 25.74997,11.5586 5.14,2.43333 11.7707,5.22443 19.8907,8.37109 6.0733,2.35334 12.7194,5.14248 19.9394,8.36914 5.04,2.26 10.8911,4.1711 16.3711,6.1211 6.2067,2.78 12.5524,5.19976 19.0391,7.25976 4.1666,1.32 7.893,2.64209 11.1797,3.96875 3.16,1.27334 6.877,2.63847 11.1503,4.0918 19.7267,6.73333 39.0097,12.78992 57.8497,18.16992 6.0733,1.74 10.1031,2.85318 12.0898,3.33984 10.87,2.66 19.9898,5.98016 30.2598,8.16016 5.7866,1.23333 14.0634,3.22518 24.83,5.97852 10.28,2.63 25.7102,5.48054 35.4102,7.56054 7.0933,1.52667 16.0274,2.98753 26.8008,4.38086 11.9066,1.53334 21.9241,2.9593 30.0508,4.2793 a 1.39,1.4 4.6 0 1 1.1699,1.38086 c 0.033,5.36 0.016,21.05961 -0.051,47.09961 -0.16,61.07 -4.5403,121.18922 -16.3203,180.69922 -1.82,9.18 -3.5397,17.78984 -5.9297,27.33984 -0.7133,2.86667 -2.1207,8.89031 -4.2207,18.07031 -1.5533,6.79334 -3.9495,15.54953 -7.1895,26.26954 -7.0866,23.49333 -14.7234,46.49643 -22.9101,69.00976 a 2.46,2.45 27.4 0 0 0.9101,2.85156 l 15.1993,10.5293 a 0.64,0.64 0 0 0 0.9804,-0.34961 c 1.76,-6.03 5.1506,-12.20047 7.3106,-18.73047 4.34,-13.14666 7.5066,-22.51604 9.5,-28.10937 4.71,-13.18 7.229,-23.32071 12.039,-39.97071 2.7267,-9.48 7.238,-29.00674 13.5313,-58.58007 4.7467,-24.19334 7.6901,-40.77977 8.8301,-49.75977 5.9933,-47.2 8.8956,-94.45 8.709,-141.75 -0.08,-19.9 0,-40.76628 0.25,-62.59961 a 1.18,1.18 0 0 0 -1.0098,-1.17969 c -9.27,-1.39 -21.4989,-2.27117 -27.8789,-3.20117 -24.66,-3.57333 -43.3317,-6.78534 -56.0117,-9.63867 -4.94,-1.11333 -14.009,-3.20482 -27.209,-6.27148 -18.04,-4.19334 -30.7036,-7.3662 -37.9903,-9.51954 -12.07,-3.57 -23.9794,-6.36906 -36.4394,-10.28906 -3.4733,-1.09333 -7.8067,-2.41427 -13,-3.96094 -20.6867,-6.16 -46.8111,-15.29992 -78.3711,-27.41992 -10.96,-4.38 -22.4594,-8.68078 -32.8594,-13.30078 -2.64,-1.17333 -7.0958,-3.0551 -13.3691,-5.64844 -15,-6.2 -28.12018,-12.8007 -41.66018,-18.9707 -8.98666,-4.10667 -16.77776,-7.79698 -23.37109,-11.07031 -10.96,-5.45 -25.16031,-12.30985 -38.07031,-19.33985 -6.10667,-3.32666 -12.89581,-6.71349 -20.36914,-10.16015 -1.75,-0.81 -3.39024,-2.12055 -4.99024,-3.06055 a 1.39,1.37 45.4 0 0 -0.68945,-0.19336 z"
         style="fill:#6b7079;fill-opacity:1" />
      <path
         id="path253"
         style="fill:#1a1f24;fill-opacity:1"
         d="m 891.14844,205.6543 a 0.83,0.85 45.7 0 0 -0.33789,0.0957 c -9.95,5.19 -19.80141,10.7593 -29.44141,15.5293 -11.53333,5.70666 -18.11977,8.95976 -19.75976,9.75976 -28.14667,13.71334 -51.81335,24.36761 -71,31.96094 -4.67334,1.85333 -9.08691,3.67737 -13.24024,5.4707 -3.41333,1.47334 -7.8393,3.25938 -13.2793,5.35938 -15.99,6.18 -27.12,10.57078 -42,15.80078 -11.7,4.12 -22.58372,7.90914 -32.65039,11.36914 -7.33,2.52 -14.04,4.43016 -19.25,6.16016 -9.07,3.01 -17.89898,5.12078 -26.45898,7.80078 -3.94667,1.23333 -7.92302,2.38255 -11.92969,3.44922 -21.02,5.60666 -42.14133,10.86906 -63.36133,15.78906 -16.75,3.4 -33.99031,7.29008 -50.32031,9.58008 -12.17333,1.70666 -22.10859,3.19427 -29.80859,4.46093 a 0.55,0.56 85 0 0 -0.46094,0.53907 c -0.31333,21.58 -0.35867,40.79086 -0.13867,57.63086 0.23333,17.47333 1.24263,36.69349 3.02929,57.66015 3,35.27 7.49891,69.23031 14.62891,102.57031 3.46,16.16667 5.19451,24.2655 5.20117,24.29883 3.02,13.06667 7.33899,29.41125 12.95899,49.03125 3.22,11.24 7.93086,23.34938 11.13086,34.35938 0.47333,1.62666 1.77682,4.94255 3.91015,9.94922 a 0.45,0.45 0 0 0 0.86914,-0.17969 l -0.11914,-139.75 c -2.06666,-6.19333 -3.62015,-12.52047 -4.66015,-18.98047 -4.74,-29.61 -8.43032,-59.79906 -9.82032,-90.28906 -0.88,-19.51334 -1.21333,-37.54318 -1,-54.08985 0.0133,-1.31333 0.70365,-2.10753 2.07032,-2.38085 7.94666,-1.61334 15.84278,-3.07534 23.68945,-4.38868 7.17,-1.2 15.38961,-3.15164 23.09961,-4.68164 L 601.00977,358 633.68945,349.05078 676.75,335.68945 c 27.22,-8.76 54.23745,-18.37317 81.05078,-28.83984 34.08667,-13.80667 67.64326,-28.84581 100.66992,-45.11914 l 22.5586,-11.40039 7.75,-5.14063 a 1.71,1.7 46 0 1 1.9414,0.041 c 6.83,4.96 18.39836,9.02898 22.81836,11.45898 10.65,5.86 21.46188,10.55149 32.67188,16.02149 15.54,7.58 31.19851,14.84239 46.97851,21.78906 14.68005,6.34 29.33145,12.86 44.27145,18.5 3.4734,1.31333 7.9354,3.01603 13.3887,5.10938 20.4,7.85333 42.3578,15.53124 65.8711,23.03124 l 25.3496,7.79883 20.4902,5.65039 30.9102,7.93946 34.25,7.48047 c 19.4333,4.04666 32.4488,6.6238 39.0488,7.73046 1.24,0.21334 2.1679,0.54667 2.7813,1 a 1,1.01 18 0 1 0.4101,0.81055 c -0.1266,12.41333 -0.1739,21.89589 -0.1406,28.44922 0.12,26.02 -1.7668,53.7638 -5.6601,83.23047 -5.8534,44.32667 -15.0704,87.72898 -27.6504,130.20898 -2.77,9.33 -7.2693,22.5211 -10.9493,34.6211 -1.5533,5.1 -3.7231,10.54961 -6.5097,16.34961 l 31.2695,21.3789 a 0.7,0.7 0 0 0 1.0391,-0.31836 c 9.57,-24.82 18.3415,-50.69117 25.2715,-76.70117 3.6066,-12.40667 6.7764,-24.91906 9.5097,-37.53906 1.2067,-5.56667 1.9598,-8.99768 2.2598,-10.29102 2.69,-11.35 4.3194,-22.44882 6.6094,-35.04883 1.36,-7.46666 2.6162,-15.75776 3.7695,-24.87109 1.52,-12.00667 2.9212,-24.01906 4.2012,-36.03906 0.1733,-1.8 0.3287,-3.5911 0.4687,-5.37109 2.26,-28.67334 3.367,-55.95938 3.3203,-81.85938 -0.02,-12.70667 -0.097,-25.0369 -0.2304,-36.99023 a 0.45,0.46 4.4 0 0 -0.3789,-0.44922 c -23.79,-3.7 -35.44,-5.08086 -53.17,-8.88086 -5.8266,-1.25334 -13.1867,-2.83047 -22.08,-4.73047 -10.77,-2.3 -20.2798,-5.11961 -30.5098,-7.34961 -6.73,-1.47 -16.2613,-4.72914 -24.6113,-6.61914 -36.6467,-9.94667 -72.8052,-21.80983 -108.4786,-35.58985 -16.2333,-6.26666 -29.0162,-11.30466 -38.3496,-15.11132 -9.2733,-3.78667 -22.2876,-9.3917 -39.04098,-16.81836 -6.51333,-2.88667 -9.99588,-4.43396 -10.44922,-4.64063 -16.78,-7.54 -32.79125,-15.09349 -48.03125,-22.66015 -1.94666,-0.96667 -3.86023,-1.96357 -5.74023,-2.99024 -4.74,-2.59 -9.49852,-4.57914 -14.47852,-7.11914 -8.17333,-4.16667 -14.71442,-7.51745 -19.62109,-10.05078 a 0.83,0.85 45.7 0 0 -0.45117,-0.0957 z m 378.52146,418.75586 c -0.72,2.9175 -2.4701,7.16203 -3.1816,11.30859 0.7117,-4.14632 2.4616,-8.39109 3.1816,-11.30859 z m -3.4531,15.53125 a 1.16,1.16 0 0 0 2.2539,0.1289 1.16,1.16 0 0 1 -2.2539,-0.1289 z" />
      <path
         id="path254"
         d="m 889.64062,244.9082 a 1.71,1.7 46 0 0 -0.86132,0.28125 l -7.75,5.14063 -22.5586,11.40039 C 825.44404,278.0038 791.88745,293.04294 757.80078,306.84961 730.98745,317.31628 703.97,326.92945 676.75,335.68945 L 633.68945,349.05078 601.00977,358 552.69922,369.53906 c -7.71,1.53 -15.92961,3.48164 -23.09961,4.68164 -7.84667,1.31334 -15.74279,2.77534 -23.68945,4.38868 -1.36667,0.27332 -2.05698,1.06752 -2.07032,2.38085 -0.21333,16.54667 0.12,34.57651 1,54.08985 1.39,30.49 5.08032,60.67906 9.82032,90.28906 1.04,6.46 2.59349,12.78714 4.66015,18.98047 l 99.53907,-0.37891 26.11132,0.14844 a 0.9,0.91 0 0 1 0.89844,0.91016 v 60.77148 a 0.47,0.47 0 0 0 0.74024,0.37891 l 64.71093,-46.20899 106.23047,-75.25976 56.75,-40.08008 11.68945,-8.58008 a 0.69,0.69 0 0 1 0.81055,-0.0117 l 64.64844,45.33008 41.41992,29.3418 94.84176,67.38867 67.7891,48.49023 63.5508,45.82032 c 2.7866,-5.8 4.9564,-11.24961 6.5097,-16.34961 3.68,-12.1 8.1793,-25.2911 10.9493,-34.6211 12.58,-42.48 21.797,-85.88231 27.6504,-130.20898 3.8933,-29.46667 5.7801,-57.21047 5.6601,-83.23047 -0.033,-6.55333 0.014,-16.03589 0.1406,-28.44922 a 1,1.01 18 0 0 -0.4101,-0.81055 c -0.6134,-0.45333 -1.5413,-0.78666 -2.7813,-1 -6.6,-1.10666 -19.6155,-3.6838 -39.0488,-7.73046 l -34.25,-7.48047 -30.9102,-7.93946 -20.4902,-5.65039 -25.3496,-7.79883 c -23.5133,-7.5 -45.4711,-15.17791 -65.8711,-23.03124 -5.4533,-2.09335 -9.9153,-3.79605 -13.3887,-5.10938 -14.9397,-5.6399 -29.5917,-12.16011 -44.27145,-18.5 -15.78,-6.94667 -31.43851,-14.20906 -46.97851,-21.78906 -11.21,-5.47 -22.02188,-10.16149 -32.67188,-16.02149 -4.42,-2.43 -15.98836,-6.49898 -22.81836,-11.45898 a 1.71,1.7 46 0 0 -1.08008,-0.32227 z"
         style="fill:#5a8ab8;fill-opacity:1" />
      <path
         id="path274"
         d="m 886.46484,461.12305 a 0.56,0.54 44.3 0 0 -0.27539,0.0977 l -36.75976,26.33008 -62.68946,44.68945 -86.56054,61.91016 -89.53907,65.46875 -0.23046,-43.39844 0.31054,-42.83984 a 0.71,0.72 82.6 0 1 0.53907,-0.69141 c 6.14666,-1.59333 12.35442,-4.51 18.62109,-8.75 a 0.68,0.68 0 0 0 -0.37109,-1.24023 l -32.00977,-0.5293 -59.93945,-0.0703 a 0.49,0.49 0 0 0 -0.49024,0.49023 v 143.91993 a 2.22,2.24 72 0 1 -0.92969,1.81054 L 228.58984,927.91992 a 0.48,0.48 0 0 0 0.38086,0.85938 c 23.07,-5.3 45.14946,-11.00016 65.18946,-15.91016 9.98,-2.44 18.91984,-5.21984 27.58984,-6.83984 3.32,-0.62 10.19753,-2.332 20.63086,-5.13868 2.82,-0.75333 8.55255,-2.08356 17.19922,-3.99023 9.65,-2.12 19.34086,-4.92094 30.13086,-7.21094 0.85333,-0.18 5.16612,-1.22534 12.93945,-3.13867 11.72667,-2.89333 20.99216,-5.08984 27.79883,-6.58984 3.96,-0.88 8.28055,-2.03117 11.56055,-4.45117 36.44666,-26.86 77.96101,-57.74993 124.54101,-92.66993 15.21,-11.4 31.03961,-22.80898 45.84961,-33.70898 44.61333,-32.84667 74.55365,-54.88466 89.82031,-66.11133 16.62,-12.21333 33.25683,-24.44898 49.91016,-36.70898 l 85.94922,-63.58985 47.93945,-35.83984 a 0.71,0.71 0 0 1 0.83985,0 l 35.86132,26.71875 101.2891,75.16016 c 20.2932,14.85327 40.6266,29.66308 61,44.42968 4.6133,3.34 9.2141,6.74737 13.8007,10.22071 6.7,5.07333 11.2834,8.50239 13.75,10.28906 12.6,9.1 24.8297,18.63125 37.0997,27.53125 18.86,13.69 44.4396,32.52945 64.9296,47.93945 9.74,7.32 24.3862,18.19753 43.9395,32.63086 29.2933,21.62 61.6565,45.52852 97.0898,71.72852 a 7.69,7.64 68.3 0 0 3.2012,1.39062 c 13.78,2.45334 25.3633,4.69094 34.75,6.71094 6.1067,1.31333 11.366,2.37612 15.7793,3.18945 13.76,2.53 28.5205,6.00891 39.4805,8.12891 14.99,2.9 24.7691,5.47133 37.3691,7.61133 13.43,2.28 26.4313,5.64953 39.0313,8.01953 11.2733,2.12 21.4431,4.21263 30.5097,6.2793 a 0.39,0.39 0 0 0 0.4102,-0.60938 c -0.4667,-0.67333 -1.1477,-1.3307 -2.041,-1.9707 -13.3867,-9.56 -35.0925,-24.84604 -65.1192,-45.85938 -18.3533,-12.84666 -40.0467,-28.10286 -65.08,-45.76953 -77.4534,-54.68667 -155.1735,-109.0107 -233.1602,-162.9707 l -111.2793,-79.19922 -25.6816,-18.41992 -61.25004,-43.6211 -82.73828,-58.70898 -22.98047,-16.50977 a 0.56,0.54 44.3 0 0 -0.35547,-0.0977 z"
         style="fill:#1f4e7a;fill-opacity:1" />
      <path
         id="path310"
         d="m 615.32,799.25 c 9.71,14.15 19.71,29.17 29.67,42.01 28.92667,37.28667 61.07333,70.63667 96.44,100.05 8.62667,7.17333 19.57,15.71333 32.83,25.62 13.09333,9.77333 24.40667,17.79333 33.94,24.06 14.35333,9.4333 29.59333,18.71 45.72,27.83 7.62667,4.3133 33.59283,18.013 33.59283,18.013 0,0 0.69853,-0.4552 0.73717,-0.493 10.53,-6.11 26.87,-14.5 40.43,-22.51 16.74667,-9.88 31.43667,-19.07333 44.07,-27.58 14.64,-9.85333 30.1733,-21.23667 46.6,-34.15 21.8933,-17.20667 42.4,-35.7 61.52,-55.48 23.3467,-24.14667 44.54,-49.53667 63.58,-76.17 2.6,-3.62667 8.0233,-11.55 16.27,-23.77 3.36,1.89333 6.2833,3.75333 8.77,5.58 2.4333,1.78667 6.3567,4.78333 11.77,8.99 2.8533,2.22 4.8733,5.47667 6.06,9.77 -3.91,5.84 -7.61,12.22 -11.56,17.57 -7.71,10.45 -15.3,21.2 -23.29,31.2 -11.05,13.82 -22.43,27.55 -31.67,37.27 -1.1467,1.20667 -4.5367,4.81333 -10.17,10.82 -13.76,14.68667 -29.9167,29.94667 -48.47,45.78 -37.0733,31.65333 -77.18,59.8833 -120.32,84.69 -19.23,11.06 -36.81,20.59 -53.96,28.52 -0.0322,0.026 -1.00625,0.3759 -1.00625,0.3759 0,0 -7.71375,-3.0259 -10.52375,-4.6659 -5.82,-3.37 -12.54,-6.11 -17.94,-9.2 -26.92,-15.38 -43.17667,-24.8767 -48.77,-28.49 -19.82,-12.7933 -31.84333,-20.7033 -36.07,-23.73 -17.54667,-12.56667 -29.06667,-21.12333 -34.56,-25.67 -18,-14.9 -37.09,-29.89 -53.13,-46.05 -6.51,-6.57 -15.71,-14.87 -22.99,-22.69 -9.33333,-10.03333 -17.05,-18.47667 -23.15,-25.33 -9.8,-11 -17.05,-20.73 -27.36,-33.77 -3.02667,-3.83333 -6.48,-8.51333 -10.36,-14.04 -6.2,-8.83333 -12.31667,-17.83667 -18.35,-27.01 -3.49333,-5.30667 -6.89,-10.88333 -10.19,-16.73 -0.29618,-0.52057 -0.14513,-1.18522 0.35,-1.54 l 14.02,-10 c 11.12,0.58 18.69,4.57 27.47,10.92 z m 534.46,-37.57 50.19,36.69 c 0.486,0.36118 0.6162,1.03355 0.3,1.55 l -12.95,21.1 c -1.1867,-4.29333 -3.2067,-7.55 -6.06,-9.77 -5.4133,-4.20667 -9.3367,-7.20333 -11.77,-8.99 -2.4867,-1.82667 -5.41,-3.68667 -8.77,-5.58 l -28,-21.61 c 4.5133,-6.23333 10.2,-10.69667 17.06,-13.39 z m -40.77,-30.06 40.77,30.06 c -6.86,2.69333 -12.5467,7.15667 -17.06,13.39 l -40.24,-30.5 c 4.76,-5.67 8.7,-11.81 16.53,-12.95 z m -447.28,27.12 -47.53,36.8 -0.92291,0.66563 2.04291,3.04437 -27.47,-10.92 61.26,-45.64 c 3.06,-0.14667 5.20333,0.51333 6.43,1.98 2.05333,2.45333 4.13667,4.91 6.25,7.37 2.12,2.47 1.89,4.3 -0.06,6.7 z m 47.35,-36.13 -47.35,36.13 c 1.95,-2.4 2.18,-4.23 0.06,-6.7 -2.11333,-2.46 -4.19667,-4.91667 -6.25,-7.37 -1.22667,-1.46667 -3.37,-2.12667 -6.43,-1.98 l 43.97,-32.45 c 4.69333,-1.74667 8.04,-0.77 10.04,2.93 1.73333,3.20667 3.72,6.35333 5.96,9.44 z m 325.2,-45.43 74.73,54.44 c -7.83,1.14 -11.77,7.28 -16.53,12.95 l -77.75,-59.55 z m -48.44,-35.55 48.44,35.55 -19.55,7.84 -47.8,-36.42 c 5.93333,-3.31333 12.23667,-5.63667 18.91,-6.97 z m 0,0 c -6.67333,1.33333 -12.97667,3.65667 -18.91,6.97 L 887.52,588.78 886.40875,588.24703 798.4,654.82 c -6.52667,-1.82667 -12.64,-4.43 -18.34,-7.81 11.42,-9.3 27.39,-20.25 35.39,-26.21 9.91333,-7.38 22.08667,-16.35333 36.52,-26.92 12.4,-9.08 22.91,-16.15 33.9,-24.55 0.45582,-0.348 1.08511,-0.35209 1.54,-0.01 z m -205.78,5.38 c 5.7,3.38 11.81333,5.98333 18.34,7.81 l -26.67,20.28 -23.51,-4.96 z m -8.33,28.09 -62.65,47.51 c -2.24,-3.08667 -4.22667,-6.23333 -5.96,-9.44 -2,-3.7 -5.34667,-4.67667 -10.04,-2.93 l 55.14,-40.1 z"
         style="fill:#1a1f24;fill-opacity:1"
         sodipodi:nodetypes="cccccscccccccccccccccccccccccccccccccccccccccccccccccccccccccccccccccscccccccccccccccccccccccccccccsccc" />
      <path
         fill="#161616"
         d="m 542.18,820.64 15.08,-10.77 a 1.29,1.29 0 0 1 1.78,0.28 q 2.43,3.24 4,5.8 c 5.2,8.49 12.26,18.16 17.77,26.71 q 4.26,6.6 8.62,12.38 c 10.07,13.33 17.77,24.48 28.47,36.18 q 2.7,2.95 10.71,12.42 c 11.86,14.04 24.52,26.4 38.63,40.87 7.79,7.99 15.27,14.12 24.28,22.67 7.69,7.3 18.01,15.64 26.22,22.61 q 14.47,12.28 37.99,29.23 28.76,20.73 62.05,40.89 7.79,4.73 17.82,10.2 c 8.77,4.79 15.45,8.97 23.96,13.32 q 10.94,5.6 27.49,13.58 a 0.94,0.92 41.8 0 0 0.87,-0.04 c 6.41,-3.86 13.15,-6.83 20.17,-10.59 q 12.04,-6.45 24.35,-13.2 30.59,-16.76 64.9,-39.6 31.11,-20.69 58.07,-42.68 3.48,-2.83 13.48,-11.51 27.76,-24.1 39.81,-36.45 6.37,-6.53 15.96,-16.38 8.08,-8.28 15.55,-16.75 15.6,-17.71 18.33,-21.01 17.7,-21.37 36.28,-48.21 8.02,-11.59 10.58,-15.87 c 3.24,-5.43 6.53,-9.66 9.62,-14.81 a 0.85,0.85 0 0 1 1.23,-0.25 l 15.21,11.26 a 1.15,1.15 0 0 1 0.3,1.51 q -13.4,22.11 -28.9,43.46 -13.27,18.29 -20.77,27.72 c -8.42,10.6 -18.04,22.02 -28.02,32.67 q -17.32,18.48 -21.91,23.13 -27.12,27.5 -50.75,47.24 -7.14,5.97 -16.87,13.96 -11.12,9.13 -17.13,13.67 -54.83,41.41 -115.67,73.93 -15.23,8.15 -41.29,21.25 -1.62,0.81 -3.12,1.26 a 1.59,1.55 -39 0 1 -1.11,-0.1 c -16.39,-7.96 -28.27,-13.65 -42.77,-21.75 -9.64,-5.37 -17.62,-9.39 -26.96,-14.9 q -36.93,-21.75 -72.04,-46.68 -18.94,-13.45 -43.39,-33.85 c -5.09,-4.24 -12.01,-10.6 -15.96,-14.07 q -16.33,-14.33 -18.25,-16.22 -16,-15.79 -27.47,-27.03 c -8.16,-8 -15.75,-16.8 -23.53,-25.23 q -12.88,-13.97 -29.54,-34.7 c -7.74,-9.63 -13.47,-18.28 -20.54,-28.01 -7.49,-10.3 -13.55,-19.93 -22.29,-33.42 q -0.97,-1.5 -1.61,-3.01 a 0.92,0.92 0 0 1 0.31,-1.11 z"
         id="path311"
         style="fill:#6b7079;fill-opacity:1" />
    </g>
  </g>
</svg>
