<svg xmlns="http://www.w3.org/2000/svg" viewBox="0 0 576 520" role="img">
  <title>Reese Roofing</title>
  <path d="M 498 511.1 L 77 511.1 L 76.4 260 L 75 258.8 L 72.6 260 L 38 290.2 L 11.5 261 L 8.6 255 L 287 7.8 L 403 109.4 L 404.5 108 L 404.5 66 L 406 63.8 L 475 63.8 L 476.5 67 L 475.8 174 L 566.9 256 L 537 290.2 L 502.4 260 L 498.7 259 L 498 511.1 Z M 451.1 464 L 451.2 215 L 290 70.5 L 287 69.7 L 123.8 215 L 123.9 464 L 451.1 464 Z" fill="#1f4e7a" fill-rule="evenodd"></path>
  <path d="M 199.001 440.814 L 199.001 215.277 L 296.179 215.277 Q 321.306 215.277 340.151 224.435 Q 358.997 233.592 369.517 250.772 Q 380.037 267.953 380.037 291.869 Q 380.037 316.087 369.29 332.738 Q 358.542 349.388 339.167 357.865 Q 319.792 366.341 294.06 366.341 L 235.935 366.341 L 235.935 318.812 L 281.648 318.812 Q 292.546 318.812 300.266 316.087 Q 307.986 313.363 312.073 307.46 Q 316.16 301.556 316.16 291.869 Q 316.16 282.181 312.073 276.126 Q 307.986 270.072 300.266 267.196 Q 292.546 264.32 281.648 264.32 L 260.154 264.32 L 260.154 440.814 Z M 321.003 440.814 L 265.906 337.279 L 330.994 337.279 L 387.605 440.814 Z" style="fill: rgb(31, 78, 122); text-wrap-mode: nowrap;"></path>
</svg>