<svg xmlns="http://www.w3.org/2000/svg" viewBox="0 0 518 536" role="img">
  <title>Reese Roofing — Commercial and Residential</title>
  <path d="M 378 57.2 L 335.5 57 L 378 57.2 Z M 374 116.5 L 374 70.1 L 374 116.5 Z M 264 248.5 L 264 181.5 L 264 248.5 Z M 113 192.2 L 67.4 192 L 113 192.2 Z M 449 192.2 L 400.5 192 L 449 192.2 Z M 201 221.5 L 201 195.5 L 201 221.5 Z M 233 218.6 L 233 196.4 L 233 218.6 Z M 349 222.5 L 349 200.1 L 349 222.5 Z M 502 484.3 L 15 484.5 L 12.7 484 L 12.5 482 L 12.7 480 L 15 479.5 L 502 479.5 L 504.3 480 L 504.5 482 L 504 484 L 502 484.3 Z" fill="#6b7079" fill-rule="evenodd"></path>
  <path d="M 404 260.1 L 114 260.5 L 112.5 259 L 112.9 250 L 121 249.5 L 122.5 248 L 122 189 L 115 191.5 L 69 191 L 85 174.5 L 249 20.5 L 259 12.8 L 339 87.4 L 340.5 86 L 340.5 70 L 334.9 68 L 335 57.9 L 379.1 58 L 379.1 68 L 375 68.8 L 373.5 71 L 373.8 120 L 448.4 190 L 447 191.5 L 399 191.2 L 378 171.5 L 376 171 L 375.5 248 L 377 249.5 L 404 249.9 L 404 260.1 Z M 166.1 249 L 166.5 165 L 169 161.7 L 259 135.5 L 356 162.3 L 369 165.4 L 370.2 164 L 262 61.5 L 258 59.8 L 190 123.5 L 186.7 125 L 184 129.1 L 181 130.7 L 153.8 158 L 153.5 248 L 155 249.5 L 166.1 249 Z M 322 139.9 L 310.6 135 L 259 93.8 L 206 135.3 L 200 138.3 L 195 139.9 L 194.8 139 L 250 86.5 L 259 79.8 L 314 130.5 L 322 139.9 Z M 180.5 189 L 250.5 170 L 252.5 168 L 252 149 L 178 169.9 L 177.5 188 L 180.5 189 Z M 364.1 249 L 364 175.9 L 267 148.7 L 263.9 149 L 263.5 167 L 265 169.2 L 355 191.8 L 357.2 194 L 357.5 197 L 355.6 231 L 346 231.5 L 323 229.5 L 316.5 227 L 316 191.9 L 272 181.5 L 264 180.9 L 264 249.1 L 275 249.5 L 276.5 248 L 276.5 198 L 278 196.3 L 303 200.5 L 305.2 202 L 306 249.1 L 364.1 249 Z M 252.1 249 L 252 180.8 L 243 182.7 L 240.5 185 L 240.5 225 L 239.3 228 L 179 231.5 L 177.5 233 L 177.5 248 L 179 249.5 L 252.1 249 Z M 217.5 222 L 231 221.5 L 233.2 220 L 233 186 L 208.9 192 L 208.5 221 L 210 222.5 L 217.5 222 Z M 348.3 224 L 349.5 221 L 349 199.7 L 324 194 L 323.9 222 L 348.3 224 Z M 187.5 224 L 199 223.5 L 201.2 222 L 201 194.9 L 197 194.7 L 177.9 200 L 177.9 224 L 187.5 224 Z M 285.6 228 L 285.1 222 L 282 221.9 L 281.9 228 L 285.6 228 Z" fill="#1f4e7a" fill-rule="evenodd"></path>
  <path d="M 13.338 385.047 L 13.338 275.916 L 60.36 275.916 C 68.465 275.916 75.557 277.393 81.637 280.347 C 87.715 283.301 92.452 287.549 95.846 293.091 C 99.239 298.633 100.936 305.262 100.936 312.977 C 100.936 320.789 99.202 327.381 95.736 332.752 C 92.269 338.123 87.411 342.176 81.161 344.91 C 74.911 347.645 67.635 349.012 59.335 349.012 L 31.21 349.012 L 31.21 326.014 L 53.329 326.014 C 56.844 326.014 59.847 325.574 62.337 324.695 C 64.827 323.816 66.732 322.425 68.05 320.521 C 69.368 318.616 70.028 316.102 70.028 312.977 C 70.028 309.852 69.368 307.312 68.05 305.359 C 66.732 303.406 64.827 301.966 62.337 301.038 C 59.847 300.111 56.844 299.647 53.329 299.647 L 42.928 299.647 L 42.928 385.047 L 13.338 385.047 Z M 72.372 385.047 L 45.711 334.949 L 77.206 334.949 L 104.598 385.047 L 72.372 385.047 Z M 120.013 385.047 L 120.013 275.916 L 198.676 275.916 L 198.676 299.793 L 149.603 299.793 L 149.603 318.25 L 194.574 318.25 L 194.574 341.541 L 149.603 341.541 L 149.603 361.17 L 198.383 361.17 L 198.383 385.047 L 120.013 385.047 Z M 219.813 385.047 L 219.813 275.916 L 298.476 275.916 L 298.476 299.793 L 249.403 299.793 L 249.403 318.25 L 294.373 318.25 L 294.373 341.541 L 249.403 341.541 L 249.403 361.17 L 298.183 361.17 L 298.183 385.047 L 219.813 385.047 Z M 363.998 386.365 C 354.525 386.365 346.261 384.961 339.205 382.154 C 332.149 379.347 326.669 375.013 322.763 369.153 C 318.856 363.294 316.878 355.799 316.83 346.668 L 344.955 346.668 C 345.15 349.989 345.992 352.796 347.481 355.091 C 348.971 357.386 351.071 359.119 353.781 360.291 C 356.491 361.463 359.75 362.049 363.558 362.049 C 366.732 362.049 369.393 361.658 371.541 360.877 C 373.69 360.096 375.314 359.009 376.412 357.618 C 377.511 356.226 378.061 354.627 378.061 352.82 C 378.061 351.16 377.536 349.708 376.485 348.463 C 375.436 347.218 373.714 346.082 371.321 345.057 C 368.929 344.032 365.707 343.104 361.653 342.274 L 350.668 339.93 C 341.048 337.879 333.468 334.376 327.925 329.42 C 322.384 324.463 319.613 317.713 319.613 309.168 C 319.613 302.235 321.493 296.168 325.252 290.967 C 329.013 285.767 334.201 281.714 340.817 278.809 C 347.433 275.904 355.062 274.451 363.705 274.451 C 372.543 274.451 380.172 275.928 386.593 278.882 C 393.014 281.837 397.97 285.987 401.462 291.334 C 404.952 296.681 406.722 302.918 406.772 310.047 L 378.354 310.047 C 378.109 306.482 376.803 303.711 374.435 301.734 C 372.066 299.757 368.49 298.768 363.705 298.768 C 360.677 298.768 358.187 299.122 356.235 299.83 C 354.281 300.538 352.841 301.527 351.912 302.796 C 350.985 304.065 350.522 305.506 350.522 307.117 C 350.522 308.826 351.022 310.328 352.023 311.622 C 353.024 312.916 354.611 314.039 356.784 314.991 C 358.956 315.943 361.752 316.785 365.17 317.518 L 374.106 319.422 C 380.111 320.691 385.274 322.376 389.596 324.476 C 393.917 326.575 397.457 329.029 400.216 331.837 C 402.975 334.644 405.002 337.806 406.295 341.321 C 407.589 344.837 408.235 348.67 408.235 352.82 C 408.235 359.998 406.466 366.089 402.925 371.094 C 399.385 376.099 394.32 379.896 387.729 382.484 C 381.136 385.071 373.226 386.365 363.998 386.365 Z M 426.001 385.047 L 426.001 275.916 L 504.662 275.916 L 504.662 299.793 L 455.591 299.793 L 455.591 318.25 L 500.561 318.25 L 500.561 341.541 L 455.591 341.541 L 455.591 361.17 L 504.37 361.17 L 504.37 385.047 L 426.001 385.047 Z" style="fill: rgb(31, 78, 122); text-wrap-mode: nowrap;"></path>
  <path d="M 13.807 462.699 L 13.807 397.22 L 42.02 397.22 C 46.883 397.22 51.138 398.106 54.786 399.879 C 58.433 401.652 61.275 404.201 63.311 407.526 C 65.347 410.851 66.366 414.828 66.366 419.457 C 66.366 424.144 65.326 428.099 63.246 431.322 C 61.165 434.545 58.25 436.976 54.5 438.617 C 50.75 440.258 46.385 441.078 41.405 441.078 L 24.53 441.078 L 24.53 427.279 L 37.801 427.279 C 39.91 427.279 41.712 427.015 43.206 426.488 C 44.7 425.961 45.843 425.126 46.634 423.983 C 47.425 422.84 47.821 421.332 47.821 419.457 C 47.821 417.582 47.425 416.058 46.634 414.887 C 45.843 413.715 44.7 412.851 43.206 412.294 C 41.712 411.737 39.91 411.459 37.801 411.459 L 31.561 411.459 L 31.561 462.699 L 13.807 462.699 Z M 49.227 462.699 L 33.231 432.64 L 52.127 432.64 L 68.563 462.699 L 49.227 462.699 Z M 119.164 463.578 C 113.216 463.578 107.833 462.289 103.014 459.711 C 98.194 457.133 94.378 453.346 91.566 448.351 C 88.754 443.356 87.348 437.24 87.348 430.004 C 87.348 422.709 88.754 416.556 91.566 411.547 C 94.378 406.537 98.194 402.75 103.014 400.187 C 107.833 397.624 113.216 396.342 119.164 396.342 C 125.111 396.342 130.487 397.624 135.292 400.187 C 140.096 402.75 143.912 406.537 146.74 411.547 C 149.566 416.556 150.98 422.709 150.98 430.004 C 150.98 437.269 149.566 443.4 146.74 448.395 C 143.912 453.39 140.096 457.169 135.292 459.733 C 130.487 462.296 125.111 463.578 119.164 463.578 Z M 119.164 448.109 C 122.123 448.109 124.606 447.413 126.613 446.022 C 128.619 444.63 130.135 442.586 131.161 439.891 C 132.186 437.196 132.699 433.9 132.699 430.004 C 132.699 426.078 132.186 422.76 131.161 420.05 C 130.135 417.34 128.619 415.289 126.613 413.898 C 124.606 412.506 122.123 411.81 119.164 411.81 C 116.234 411.81 113.766 412.506 111.759 413.898 C 109.752 415.289 108.229 417.34 107.189 420.05 C 106.149 422.76 105.629 426.078 105.629 430.004 C 105.629 433.9 106.149 437.196 107.189 439.891 C 108.229 442.586 109.752 444.63 111.759 446.022 C 113.766 447.413 116.234 448.109 119.164 448.109 Z M 204.397 463.578 C 198.449 463.578 193.066 462.289 188.247 459.711 C 183.427 457.133 179.611 453.346 176.799 448.351 C 173.986 443.356 172.58 437.24 172.58 430.004 C 172.58 422.709 173.986 416.556 176.799 411.547 C 179.611 406.537 183.427 402.75 188.247 400.187 C 193.066 397.624 198.449 396.342 204.397 396.342 C 210.344 396.342 215.72 397.624 220.525 400.187 C 225.329 402.75 229.145 406.537 231.971 411.547 C 234.799 416.556 236.212 422.709 236.212 430.004 C 236.212 437.269 234.799 443.4 231.971 448.395 C 229.145 453.39 225.329 457.169 220.525 459.733 C 215.72 462.296 210.344 463.578 204.397 463.578 Z M 204.397 448.109 C 207.355 448.109 209.838 447.413 211.845 446.022 C 213.852 444.63 215.368 442.586 216.393 439.891 C 217.419 437.196 217.932 433.9 217.932 430.004 C 217.932 426.078 217.419 422.76 216.393 420.05 C 215.368 417.34 213.852 415.289 211.845 413.898 C 209.838 412.506 207.355 411.81 204.397 411.81 C 201.466 411.81 198.998 412.506 196.992 413.898 C 194.985 415.289 193.462 417.34 192.421 420.05 C 191.381 422.76 190.861 426.078 190.861 430.004 C 190.861 433.9 191.381 437.196 192.421 439.891 C 193.462 442.586 194.985 444.63 196.992 446.022 C 198.998 447.413 201.466 448.109 204.397 448.109 Z M 258.076 462.699 L 258.076 397.22 L 304.131 397.22 L 304.131 411.547 L 275.83 411.547 L 275.83 426.312 L 301.318 426.312 L 301.318 440.287 L 275.83 440.287 L 275.83 462.699 L 258.076 462.699 Z M 342.081 397.22 L 342.081 462.699 L 324.328 462.699 L 324.328 397.22 L 342.081 397.22 Z M 420.809 397.22 L 420.809 462.699 L 406.045 462.699 L 382.402 428.334 L 381.963 428.334 L 381.963 462.699 L 364.209 462.699 L 364.209 397.22 L 379.326 397.22 L 402.528 431.498 L 403.055 431.498 L 403.055 397.22 L 420.809 397.22 Z M 474.749 463.578 C 468.392 463.578 462.804 462.223 457.985 459.513 C 453.165 456.803 449.408 452.943 446.713 447.933 C 444.017 442.924 442.67 436.977 442.67 430.092 C 442.67 422.885 444.113 416.769 446.998 411.744 C 449.884 406.72 453.743 402.897 458.578 400.275 C 463.412 397.653 468.773 396.342 474.662 396.342 C 478.529 396.342 482.125 396.891 485.451 397.99 C 488.776 399.088 491.727 400.648 494.305 402.67 C 496.884 404.691 498.956 407.072 500.524 409.811 C 502.091 412.55 503.05 415.561 503.403 418.842 L 485.472 418.842 C 485.208 417.729 484.776 416.732 484.175 415.853 C 483.575 414.974 482.829 414.235 481.934 413.634 C 481.041 413.033 480.016 412.579 478.859 412.272 C 477.701 411.964 476.42 411.81 475.014 411.81 C 472.054 411.81 469.52 412.521 467.411 413.942 C 465.301 415.363 463.697 417.421 462.598 420.116 C 461.5 422.811 460.951 426.049 460.951 429.828 C 460.951 433.666 461.478 436.947 462.532 439.672 C 463.587 442.397 465.148 444.484 467.214 445.934 C 469.279 447.384 471.85 448.109 474.925 448.109 C 477.621 448.109 479.869 447.714 481.671 446.923 C 483.473 446.132 484.82 445.011 485.714 443.561 C 486.608 442.111 487.054 440.404 487.054 438.441 L 490.131 438.793 L 475.19 438.793 L 475.19 426.137 L 504.193 426.137 L 504.193 435.189 C 504.193 441.166 502.933 446.271 500.414 450.504 C 497.894 454.737 494.415 457.975 489.976 460.216 C 485.539 462.457 480.463 463.578 474.749 463.578 Z" style="fill: rgb(31, 78, 122); text-wrap-mode: nowrap;"></path>
  <path d="M 23.467 521.796 C 21.608 521.796 19.937 521.395 18.456 520.593 C 16.975 519.791 15.803 518.613 14.942 517.059 C 14.081 515.505 13.65 513.602 13.65 511.351 C 13.65 509.082 14.088 507.168 14.963 505.609 C 15.838 504.05 17.018 502.872 18.504 502.075 C 19.989 501.277 21.644 500.878 23.467 500.878 C 24.752 500.878 25.936 501.054 27.021 501.405 C 28.106 501.756 29.056 502.271 29.872 502.95 C 30.688 503.629 31.342 504.458 31.834 505.438 C 32.326 506.418 32.627 507.541 32.736 508.808 L 27.131 508.808 C 27.094 508.343 26.992 507.92 26.823 507.537 C 26.654 507.154 26.422 506.825 26.126 506.552 C 25.83 506.279 25.475 506.067 25.06 505.917 C 24.645 505.766 24.168 505.691 23.631 505.691 C 22.71 505.691 21.929 505.917 21.286 506.368 C 20.643 506.819 20.158 507.466 19.83 508.309 C 19.502 509.152 19.338 510.166 19.338 511.351 C 19.338 512.591 19.507 513.63 19.844 514.468 C 20.181 515.307 20.667 515.936 21.3 516.355 C 21.933 516.774 22.701 516.984 23.603 516.984 C 24.114 516.984 24.57 516.92 24.971 516.793 C 25.372 516.665 25.722 516.478 26.023 516.232 C 26.324 515.986 26.568 515.69 26.755 515.343 C 26.942 514.997 27.067 514.605 27.131 514.168 L 32.736 514.168 C 32.673 515.033 32.434 515.915 32.019 516.813 C 31.604 517.711 31.011 518.536 30.241 519.288 C 29.471 520.04 28.523 520.646 27.397 521.106 C 26.272 521.566 24.962 521.796 23.467 521.796 Z M 48.353 521.796 C 46.502 521.796 44.827 521.395 43.328 520.593 C 41.829 519.791 40.642 518.613 39.767 517.059 C 38.892 515.505 38.454 513.602 38.454 511.351 C 38.454 509.082 38.892 507.168 39.767 505.609 C 40.642 504.05 41.829 502.872 43.328 502.075 C 44.827 501.277 46.502 500.878 48.353 500.878 C 50.203 500.878 51.875 501.277 53.37 502.075 C 54.865 502.872 56.053 504.05 56.932 505.609 C 57.811 507.168 58.251 509.082 58.251 511.351 C 58.251 513.612 57.811 515.519 56.932 517.073 C 56.053 518.627 54.865 519.803 53.37 520.6 C 51.875 521.397 50.203 521.796 48.353 521.796 Z M 48.353 516.984 C 49.274 516.984 50.046 516.768 50.67 516.335 C 51.295 515.902 51.766 515.266 52.085 514.427 C 52.404 513.588 52.564 512.563 52.564 511.351 C 52.564 510.13 52.404 509.097 52.085 508.254 C 51.766 507.411 51.295 506.773 50.67 506.34 C 50.046 505.907 49.274 505.691 48.353 505.691 C 47.442 505.691 46.674 505.907 46.049 506.34 C 45.425 506.773 44.951 507.411 44.627 508.254 C 44.304 509.097 44.142 510.13 44.142 511.351 C 44.142 512.563 44.304 513.588 44.627 514.427 C 44.951 515.266 45.425 515.902 46.049 516.335 C 46.674 516.768 47.442 516.984 48.353 516.984 Z M 64.082 501.152 L 70.972 501.152 L 75.703 512.691 L 75.921 512.691 L 80.679 501.152 L 87.542 501.152 L 87.542 521.523 L 82.128 521.523 L 82.128 509.738 L 81.992 509.738 L 77.453 521.359 L 74.171 521.359 L 69.66 509.683 L 69.496 509.683 L 69.496 521.523 L 64.082 521.523 L 64.082 501.152 Z M 93.446 501.152 L 100.336 501.152 L 105.067 512.691 L 105.285 512.691 L 110.043 501.152 L 116.906 501.152 L 116.906 521.523 L 111.492 521.523 L 111.492 509.738 L 111.356 509.738 L 106.817 521.359 L 103.535 521.359 L 99.024 509.683 L 98.86 509.683 L 98.86 521.523 L 93.446 521.523 L 93.446 501.152 Z M 122.81 521.523 L 122.81 501.152 L 137.493 501.152 L 137.493 505.609 L 128.333 505.609 L 128.333 509.054 L 136.727 509.054 L 136.727 513.402 L 128.333 513.402 L 128.333 517.066 L 137.438 517.066 L 137.438 521.523 L 122.81 521.523 Z M 143.51 521.523 L 143.51 501.152 L 152.287 501.152 C 153.8 501.152 155.124 501.428 156.259 501.979 C 157.394 502.53 158.278 503.323 158.911 504.358 C 159.544 505.393 159.861 506.63 159.861 508.07 C 159.861 509.528 159.538 510.758 158.891 511.761 C 158.244 512.764 157.337 513.52 156.17 514.031 C 155.003 514.541 153.645 514.796 152.096 514.796 L 146.846 514.796 L 146.846 510.503 L 150.975 510.503 C 151.631 510.503 152.191 510.421 152.656 510.257 C 153.121 510.093 153.476 509.833 153.723 509.478 C 153.969 509.123 154.092 508.653 154.092 508.07 C 154.092 507.487 153.969 507.013 153.723 506.648 C 153.476 506.283 153.121 506.014 152.656 505.841 C 152.191 505.668 151.631 505.582 150.975 505.582 L 149.033 505.582 L 149.033 521.523 L 143.51 521.523 Z M 154.529 521.523 L 149.553 512.171 L 155.432 512.171 L 160.545 521.523 L 154.529 521.523 Z M 175.227 521.796 C 173.368 521.796 171.697 521.395 170.216 520.593 C 168.735 519.791 167.563 518.613 166.702 517.059 C 165.841 515.505 165.41 513.602 165.41 511.351 C 165.41 509.082 165.848 507.168 166.723 505.609 C 167.598 504.05 168.778 502.872 170.264 502.075 C 171.749 501.277 173.404 500.878 175.227 500.878 C 176.512 500.878 177.696 501.054 178.781 501.405 C 179.866 501.756 180.816 502.271 181.632 502.95 C 182.448 503.629 183.102 504.458 183.594 505.438 C 184.086 506.418 184.387 507.541 184.496 508.808 L 178.891 508.808 C 178.854 508.343 178.752 507.92 178.583 507.537 C 178.414 507.154 178.182 506.825 177.886 506.552 C 177.59 506.279 177.234 506.067 176.819 505.917 C 176.404 505.766 175.928 505.691 175.391 505.691 C 174.47 505.691 173.689 505.917 173.046 506.368 C 172.403 506.819 171.918 507.466 171.59 508.309 C 171.262 509.152 171.098 510.166 171.098 511.351 C 171.098 512.591 171.267 513.63 171.604 514.468 C 171.941 515.307 172.426 515.936 173.06 516.355 C 173.693 516.774 174.461 516.984 175.363 516.984 C 175.874 516.984 176.33 516.92 176.731 516.793 C 177.132 516.665 177.482 516.478 177.783 516.232 C 178.084 515.986 178.328 515.69 178.515 515.343 C 178.702 514.997 178.827 514.605 178.891 514.168 L 184.496 514.168 C 184.433 515.033 184.193 515.915 183.778 516.813 C 183.363 517.711 182.771 518.536 182.001 519.288 C 181.231 520.04 180.283 520.646 179.157 521.106 C 178.032 521.566 176.722 521.796 175.227 521.796 Z M 195.82 501.152 L 195.82 521.523 L 190.296 521.523 L 190.296 501.152 L 195.82 501.152 Z M 207.012 521.523 L 201.051 521.523 L 207.777 501.152 L 215.324 501.152 L 222.051 521.523 L 216.09 521.523 L 211.633 506.757 L 211.469 506.757 L 207.012 521.523 Z M 205.918 513.484 L 217.129 513.484 L 217.129 517.613 L 205.918 517.613 L 205.918 513.484 Z M 227.279 521.523 L 227.279 501.152 L 232.803 501.152 L 232.803 517.066 L 241.033 517.066 L 241.033 521.523 L 227.279 521.523 Z M 262.017 521.851 C 260.559 521.851 259.301 521.591 258.244 521.072 C 257.187 520.553 256.375 519.858 255.81 518.987 C 255.245 518.116 254.962 517.157 254.962 516.109 C 254.962 515.344 255.108 514.669 255.4 514.086 C 255.691 513.503 256.101 512.965 256.63 512.472 C 257.159 511.98 257.769 511.497 258.462 511.023 L 263.084 508.152 C 263.549 507.86 263.865 507.559 264.034 507.25 C 264.203 506.94 264.287 506.657 264.287 506.402 C 264.287 506.083 264.166 505.798 263.924 505.547 C 263.683 505.296 263.311 505.171 262.81 505.171 C 262.5 505.171 262.233 505.228 262.01 505.342 C 261.787 505.456 261.614 505.618 261.491 505.828 C 261.368 506.037 261.306 506.283 261.306 506.566 C 261.306 506.958 261.418 507.359 261.641 507.769 C 261.864 508.179 262.172 508.619 262.564 509.088 C 262.956 509.558 263.394 510.085 263.877 510.668 L 273.748 521.523 L 268.252 521.523 L 259.994 512.773 C 259.583 512.336 259.134 511.805 258.647 511.18 C 258.16 510.556 257.738 509.85 257.382 509.061 C 257.027 508.272 256.849 507.413 256.849 506.484 C 256.849 505.445 257.097 504.499 257.594 503.647 C 258.091 502.795 258.786 502.116 259.679 501.61 C 260.572 501.104 261.616 500.851 262.81 500.851 C 263.949 500.851 264.931 501.086 265.756 501.555 C 266.581 502.024 267.217 502.649 267.664 503.428 C 268.111 504.207 268.334 505.071 268.334 506.019 C 268.334 506.958 268.101 507.84 267.636 508.665 C 267.171 509.49 266.502 510.212 265.627 510.832 L 261.416 513.812 C 261.097 514.04 260.816 514.3 260.575 514.591 C 260.333 514.883 260.212 515.261 260.212 515.726 C 260.212 516.109 260.303 516.437 260.486 516.711 C 260.668 516.984 260.923 517.194 261.252 517.339 C 261.58 517.485 261.963 517.558 262.4 517.558 C 263.083 517.558 263.765 517.394 264.444 517.066 C 265.123 516.738 265.742 516.275 266.303 515.678 C 266.864 515.081 267.315 514.377 267.657 513.566 C 267.998 512.755 268.169 511.871 268.169 510.914 L 272.517 510.914 C 272.517 512.089 272.394 513.224 272.148 514.318 C 271.902 515.412 271.508 516.412 270.965 517.319 C 270.423 518.226 269.71 518.989 268.826 519.609 C 268.543 519.755 268.27 519.889 268.005 520.012 C 267.741 520.135 267.468 520.265 267.185 520.402 C 266.374 520.931 265.524 521.304 264.635 521.523 C 263.746 521.742 262.874 521.851 262.017 521.851 Z M 287.043 521.523 L 287.043 501.152 L 295.82 501.152 C 297.333 501.152 298.657 501.428 299.792 501.979 C 300.927 502.53 301.811 503.323 302.444 504.358 C 303.077 505.393 303.394 506.63 303.394 508.07 C 303.394 509.528 303.071 510.758 302.424 511.761 C 301.777 512.764 300.87 513.52 299.703 514.031 C 298.536 514.541 297.178 514.796 295.629 514.796 L 290.379 514.796 L 290.379 510.503 L 294.508 510.503 C 295.164 510.503 295.724 510.421 296.189 510.257 C 296.654 510.093 297.009 509.833 297.256 509.478 C 297.502 509.123 297.625 508.653 297.625 508.07 C 297.625 507.487 297.502 507.013 297.256 506.648 C 297.009 506.283 296.654 506.014 296.189 505.841 C 295.724 505.668 295.164 505.582 294.508 505.582 L 292.566 505.582 L 292.566 521.523 L 287.043 521.523 Z M 298.062 521.523 L 293.086 512.171 L 298.965 512.171 L 304.078 521.523 L 298.062 521.523 Z M 309.025 521.523 L 309.025 501.152 L 323.709 501.152 L 323.709 505.609 L 314.549 505.609 L 314.549 509.054 L 322.943 509.054 L 322.943 513.402 L 314.549 513.402 L 314.549 517.066 L 323.654 517.066 L 323.654 521.523 L 309.025 521.523 Z M 338.011 521.769 C 336.242 521.769 334.7 521.507 333.383 520.983 C 332.066 520.459 331.042 519.65 330.313 518.556 C 329.584 517.463 329.215 516.064 329.206 514.359 L 334.456 514.359 C 334.493 514.979 334.65 515.503 334.928 515.931 C 335.206 516.36 335.598 516.683 336.103 516.902 C 336.609 517.121 337.218 517.23 337.929 517.23 C 338.521 517.23 339.018 517.157 339.419 517.011 C 339.82 516.866 340.123 516.663 340.328 516.403 C 340.533 516.143 340.636 515.844 340.636 515.507 C 340.636 515.198 340.538 514.927 340.342 514.694 C 340.146 514.461 339.825 514.249 339.378 514.058 C 338.931 513.867 338.33 513.694 337.573 513.539 L 335.522 513.101 C 333.727 512.718 332.312 512.064 331.277 511.139 C 330.243 510.214 329.726 508.954 329.726 507.359 C 329.726 506.065 330.077 504.932 330.778 503.961 C 331.48 502.99 332.449 502.234 333.684 501.692 C 334.919 501.149 336.343 500.878 337.956 500.878 C 339.606 500.878 341.03 501.154 342.228 501.706 C 343.427 502.257 344.352 503.032 345.004 504.03 C 345.655 505.028 345.986 506.192 345.995 507.523 L 340.69 507.523 C 340.645 506.858 340.401 506.34 339.959 505.971 C 339.517 505.602 338.849 505.418 337.956 505.418 C 337.391 505.418 336.926 505.484 336.561 505.616 C 336.197 505.748 335.928 505.932 335.755 506.169 C 335.582 506.406 335.495 506.675 335.495 506.976 C 335.495 507.295 335.588 507.576 335.775 507.817 C 335.962 508.058 336.259 508.268 336.664 508.446 C 337.069 508.623 337.591 508.781 338.229 508.918 L 339.897 509.273 C 341.018 509.51 341.982 509.824 342.789 510.216 C 343.596 510.608 344.256 511.066 344.771 511.59 C 345.286 512.115 345.665 512.705 345.906 513.361 C 346.148 514.017 346.269 514.732 346.269 515.507 C 346.269 516.847 345.938 517.984 345.277 518.919 C 344.616 519.853 343.671 520.561 342.44 521.044 C 341.21 521.527 339.734 521.769 338.011 521.769 Z M 357.184 501.152 L 357.184 521.523 L 351.661 521.523 L 351.661 501.152 L 357.184 501.152 Z M 370.946 521.523 L 365.368 521.523 L 365.368 516.82 L 370.727 516.82 C 371.739 516.82 372.603 516.66 373.318 516.341 C 374.033 516.022 374.578 515.464 374.952 514.667 C 375.326 513.869 375.513 512.764 375.513 511.351 C 375.513 509.929 375.324 508.819 374.945 508.022 C 374.567 507.225 374.009 506.664 373.27 506.34 C 372.532 506.017 371.63 505.855 370.563 505.855 L 365.286 505.855 L 365.286 501.152 L 370.864 501.152 C 372.961 501.152 374.77 501.56 376.292 502.376 C 377.814 503.191 378.99 504.36 379.819 505.882 C 380.648 507.405 381.063 509.228 381.063 511.351 C 381.063 513.466 380.651 515.284 379.826 516.806 C 379.001 518.328 377.832 519.495 376.319 520.306 C 374.806 521.117 373.015 521.523 370.946 521.523 Z M 368.622 501.152 L 368.622 521.523 L 363.098 521.523 L 363.098 501.152 L 368.622 501.152 Z M 386.886 521.523 L 386.886 501.152 L 401.57 501.152 L 401.57 505.609 L 392.409 505.609 L 392.409 509.054 L 400.804 509.054 L 400.804 513.402 L 392.409 513.402 L 392.409 517.066 L 401.515 517.066 L 401.515 521.523 L 386.886 521.523 Z M 425.196 501.152 L 425.196 521.523 L 420.602 521.523 L 413.246 510.832 L 413.11 510.832 L 413.11 521.523 L 407.586 521.523 L 407.586 501.152 L 412.289 501.152 L 419.508 511.816 L 419.672 511.816 L 419.672 501.152 L 425.196 501.152 Z M 430.561 505.609 L 430.561 501.152 L 448.252 501.152 L 448.252 505.609 L 442.127 505.609 L 442.127 521.523 L 436.686 521.523 L 436.686 505.609 L 430.561 505.609 Z M 459.136 501.152 L 459.136 521.523 L 453.613 521.523 L 453.613 501.152 L 459.136 501.152 Z M 470.328 521.523 L 464.367 521.523 L 471.094 501.152 L 478.641 501.152 L 485.367 521.523 L 479.406 521.523 L 474.949 506.757 L 474.785 506.757 L 470.328 521.523 Z M 469.234 513.484 L 480.445 513.484 L 480.445 517.613 L 469.234 517.613 L 469.234 513.484 Z M 490.596 521.523 L 490.596 501.152 L 496.119 501.152 L 496.119 517.066 L 504.35 517.066 L 504.35 521.523 L 490.596 521.523 Z" style="fill: rgb(107, 112, 121); text-wrap-mode: nowrap;"></path>
</svg>